<svg version="1.1" viewBox="0.0 0.0 817.0 423.0" fill="none" stroke="none" stroke-linecap="square" stroke-miterlimit="10" xmlns:xlink="http://www.w3.org/1999/xlink" xmlns="http://www.w3.org/2000/svg"><clipPath id="p.0"><path d="m0 0l817.0 0l0 423.0l-817.0 0l0 -423.0z" clip-rule="nonzero"/></clipPath><g clip-path="url(#p.0)"><path fill="#000000" fill-opacity="0.0" d="m0 0l817.0 0l0 423.0l-817.0 0z" fill-rule="evenodd"/><path fill="#000000" fill-opacity="0.0" d="m8.926509 111.76756l0 0c0 -32.05925 25.989155 -58.0484 58.048405 -58.0484l682.9898 0c15.395386 0 30.160217 6.115795 41.046448 17.001984c10.886169 10.886185 17.001953 25.651024 17.001953 41.046417l0 232.18666c0 32.059235 -25.989136 58.0484 -58.0484 58.0484l-682.9898 0c-32.05925 0 -58.048405 -25.989166 -58.048405 -58.0484z" fill-rule="evenodd"/><path stroke="#666666" stroke-width="4.0" stroke-linejoin="round" stroke-linecap="butt" d="m8.926509 111.76756l0 0c0 -32.05925 25.989155 -58.0484 58.048405 -58.0484l682.9898 0c15.395386 0 30.160217 6.115795 41.046448 17.001984c10.886169 10.886185 17.001953 25.651024 17.001953 41.046417l0 232.18666c0 32.059235 -25.989136 58.0484 -58.0484 58.0484l-682.9898 0c-32.05925 0 -58.048405 -25.989166 -58.048405 -58.0484z" fill-rule="evenodd"/><path fill="#000000" fill-opacity="0.0" d="m326.5315 1.7139108l165.03937 0l0 44.09449l-165.03937 0z" fill-rule="evenodd"/><path fill="#666666" d="m339.30508 16.691412l0 2.65625l3.25 0l0 11.75l-3.25 0l0 2.656248l9.859375 0l0 -2.656248l-3.328125 0l0 -11.75l3.328125 0l0 -2.65625l-9.859375 0zm13.792969 17.062498l3.265625 0l0 -9.015623q0.171875 -0.25 0.359375 -0.453125q0.203125 -0.21875 0.453125 -0.375q0.296875 -0.21875 0.6875 -0.3125q0.40625 -0.109375 0.875 -0.109375q0.5625 0 1.0 0.109375q0.453125 0.109375 0.765625 0.390625q0.3125 0.28125 0.484375 0.765625q0.171875 0.484375 0.171875 1.234375l0 7.765623l3.25 0l0 -7.812498q0 -1.375 -0.328125 -2.34375q-0.3125 -0.96875 -0.890625 -1.59375q-0.578125 -0.609375 -1.375 -0.890625q-0.796875 -0.28125 -1.765625 -0.28125q-0.75 0 -1.421875 0.21875q-0.65625 0.203125 -1.21875 0.609375q-0.328125 0.234375 -0.625 0.53125q-0.296875 0.28125 -0.53125 0.640625l-0.203125 -1.765625l-2.953125 0l0 12.687498zm22.574219 -3.484373q0 0.296875 -0.140625 0.546875q-0.140625 0.234375 -0.4375 0.421875q-0.3125 0.1875 -0.78125 0.3125q-0.46875 0.109375 -1.109375 0.109375q-0.53125 0 -1.03125 -0.109375q-0.484375 -0.109375 -0.875 -0.34375q-0.390625 -0.21875 -0.640625 -0.578125q-0.234375 -0.375 -0.28125 -0.890625l-3.09375 0q0 0.765625 0.375 1.53125q0.375 0.7656231 1.125 1.3749981q0.734375 0.609375 1.828125 0.984375q1.09375 0.375 2.53125 0.375q1.296875 0 2.34375 -0.28125q1.0625 -0.296875 1.8125 -0.8125q0.734375 -0.515625 1.140625 -1.2187481q0.40625 -0.71875 0.40625 -1.5625q0 -0.90625 -0.40625 -1.5625q-0.40625 -0.671875 -1.125 -1.140625q-0.703125 -0.453125 -1.6875 -0.75q-0.984375 -0.296875 -2.140625 -0.484375q-0.796875 -0.109375 -1.3125 -0.265625q-0.515625 -0.171875 -0.8125 -0.359375q-0.296875 -0.1875 -0.421875 -0.421875q-0.109375 -0.25 -0.109375 -0.53125q0 -0.28125 0.125 -0.53125q0.140625 -0.25 0.40625 -0.4375q0.28125 -0.21875 0.71875 -0.328125q0.453125 -0.125 1.046875 -0.125q0.703125 0 1.203125 0.1875q0.5 0.171875 0.78125 0.453125q0.21875 0.234375 0.3125 0.515625q0.109375 0.265625 0.109375 0.578125l3.265625 0q0 -0.875 -0.390625 -1.625q-0.390625 -0.75 -1.109375 -1.296875q-0.734375 -0.546875 -1.796875 -0.859375q-1.046875 -0.3125 -2.375 -0.3125q-1.265625 0 -2.28125 0.328125q-1.0 0.3125 -1.703125 0.84375q-0.703125 0.546875 -1.078125 1.265625q-0.375 0.703125 -0.375 1.5q0 0.796875 0.359375 1.421875q0.375 0.625 1.03125 1.09375q0.65625 0.484375 1.578125 0.8125q0.921875 0.328125 2.03125 0.5625q0.875 0.15625 1.453125 0.328125q0.578125 0.15625 0.921875 0.34375q0.34375 0.203125 0.46875 0.421875q0.140625 0.21875 0.140625 0.515625zm12.199219 -12.296875l-3.25 0l0 3.09375l-2.890625 0l0 2.40625l2.890625 0l0 5.765625q0 1.25 0.328125 2.15625q0.328125 0.8906231 0.9375 1.4687481q0.59375 0.578125 1.4375 0.859375q0.859375 0.28125 1.90625 0.28125q0.53125 0 1.078125 -0.0625q0.5625 -0.046875 1.078125 -0.140625q0.515625 -0.09375 0.96875 -0.234375q0.46875 -0.15625 0.8125 -0.359375l-0.328125 -2.234373q-0.21875 0.0625 -0.53125 0.125q-0.3125 0.046875 -0.65625 0.09375q-0.359375 0.0625 -0.765625 0.109375q-0.390625 0.03125 -0.765625 0.03125q-0.515625 0 -0.9375 -0.109375q-0.40625 -0.125 -0.703125 -0.40625q-0.28125 -0.28125 -0.453125 -0.734375q-0.15625 -0.46875 -0.15625 -1.15625l0 -5.453125l4.734375 0l0 -2.40625l-4.734375 0l0 -3.09375zm17.542969 2.859375q-1.28125 0 -2.359375 0.625q-1.078125 0.609375 -1.859375 1.6875l-0.015625 -0.28125l-0.125 -1.796875l-3.046875 0l0 12.687498l3.265625 0l0 -7.624998q0.21875 -0.53125 0.5625 -0.921875q0.34375 -0.40625 0.8125 -0.671875q0.40625 -0.21875 0.90625 -0.328125q0.515625 -0.109375 1.15625 -0.109375q0.609375 0 1.28125 0.078125q0.671875 0.078125 1.3125 0.21875l0.484375 -3.234375q-0.390625 -0.125 -1.015625 -0.21875q-0.625 -0.109375 -1.359375 -0.109375zm13.558594 12.921873l2.953125 0l0 -12.687498l-3.265625 0l0 8.90625q-0.15625 0.296875 -0.375 0.546875q-0.203125 0.25 -0.46875 0.421875q-0.3125 0.203125 -0.734375 0.3125q-0.40625 0.09375 -0.921875 0.09375q-0.578125 0 -0.984375 -0.140625q-0.390625 -0.140625 -0.640625 -0.46875q-0.25 -0.3125 -0.359375 -0.84375q-0.109375 -0.53125 -0.109375 -1.296875l0 -7.53125l-3.25 0l0 7.5q0 1.453125 0.3125 2.484375q0.328125 1.0156231 0.90625 1.6718731q0.59375 0.671875 1.40625 0.984375q0.828125 0.296875 1.8125 0.296875q1.078125 0 1.984375 -0.53125q0.90625 -0.546875 1.546875 -1.4999981l0.1875 1.7812481zm8.167969 -12.687498l-2.8125 0l0 12.687498l2.96875 0l0 -9.499998q0.0625 -0.140625 0.125 -0.265625q0.078125 -0.140625 0.171875 -0.234375q0.125 -0.125 0.28125 -0.1875q0.171875 -0.078125 0.390625 -0.078125q0.1875 0 0.34375 0.0625q0.171875 0.046875 0.296875 0.171875q0.109375 0.125 0.171875 0.359375q0.078125 0.234375 0.078125 0.59375l0 9.078123l2.875 0l0 -9.359373q0 -0.140625 0 -0.21875q0 -0.078125 0 -0.109375q0.0625 -0.125 0.140625 -0.21875q0.078125 -0.109375 0.1875 -0.1875q0.125 -0.078125 0.265625 -0.125q0.15625 -0.046875 0.34375 -0.046875q0.171875 0 0.34375 0.0625q0.171875 0.046875 0.296875 0.171875q0.140625 0.140625 0.203125 0.375q0.078125 0.234375 0.078125 0.59375l0 9.062498l2.96875 0l0 -9.046873q0 -1.0625 -0.203125 -1.78125q-0.203125 -0.734375 -0.5625 -1.203125q-0.375 -0.46875 -0.875 -0.671875q-0.5 -0.21875 -1.078125 -0.21875q-0.453125 0 -0.84375 0.125q-0.390625 0.109375 -0.6875 0.328125q-0.25 0.15625 -0.453125 0.390625q-0.203125 0.234375 -0.375 0.515625q-0.09375 -0.296875 -0.25 -0.515625q-0.140625 -0.234375 -0.34375 -0.40625q-0.25 -0.21875 -0.609375 -0.328125q-0.34375 -0.109375 -0.796875 -0.109375q-0.90625 0 -1.546875 0.484375q-0.640625 0.46875 -1.0 1.296875l-0.09375 -1.546875zm18.527344 12.921873q1.828125 0 3.171875 -0.71875q1.359375 -0.71875 1.984375 -1.5937481l-1.640625 -1.75q-0.5625 0.71875 -1.46875 1.09375q-0.890625 0.359375 -1.859375 0.359375q-0.671875 0 -1.25 -0.203125q-0.578125 -0.21875 -1.015625 -0.609375q-0.4375 -0.375 -0.703125 -0.828125q-0.25 -0.46875 -0.40625 -1.234375l0 -0.03125l8.59375 0l0 -1.390625q0 -1.390625 -0.390625 -2.546875q-0.375 -1.15625 -1.125 -1.96875q-0.75 -0.828125 -1.828125 -1.28125q-1.0625 -0.453125 -2.4375 -0.453125q-1.3125 0 -2.4375 0.484375q-1.125 0.484375 -1.953125 1.34375q-0.8125 0.875 -1.28125 2.078125q-0.453125 1.203125 -0.453125 2.65625l0 0.46875q0 1.265625 0.453125 2.390625q0.46875 1.125 1.328125 1.9374981q0.859375 0.828125 2.046875 1.3125q1.203125 0.484375 2.671875 0.484375zm-0.390625 -10.515623q0.625 0 1.09375 0.203125q0.46875 0.1875 0.796875 0.515625q0.328125 0.34375 0.515625 0.796875q0.1875 0.453125 0.1875 0.96875l0 0.265625l-5.34375 0q0.125 -0.625 0.359375 -1.125q0.234375 -0.515625 0.578125 -0.875q0.34375 -0.359375 0.796875 -0.546875q0.46875 -0.203125 1.015625 -0.203125zm8.636719 10.281248l3.265625 0l0 -9.015623q0.171875 -0.25 0.359375 -0.453125q0.203125 -0.21875 0.453125 -0.375q0.296875 -0.21875 0.6875 -0.3125q0.40625 -0.109375 0.875 -0.109375q0.5625 0 1.0 0.109375q0.453125 0.109375 0.765625 0.390625q0.3125 0.28125 0.484375 0.765625q0.171875 0.484375 0.171875 1.234375l0 7.765623l3.25 0l0 -7.812498q0 -1.375 -0.328125 -2.34375q-0.3125 -0.96875 -0.890625 -1.59375q-0.578125 -0.609375 -1.375 -0.890625q-0.796875 -0.28125 -1.765625 -0.28125q-0.75 0 -1.421875 0.21875q-0.65625 0.203125 -1.21875 0.609375q-0.328125 0.234375 -0.625 0.53125q-0.296875 0.28125 -0.53125 0.640625l-0.203125 -1.765625l-2.953125 0l0 12.687498zm20.371094 -15.781248l-3.25 0l0 3.09375l-2.890625 0l0 2.40625l2.890625 0l0 5.765625q0 1.25 0.328125 2.15625q0.328125 0.8906231 0.9375 1.4687481q0.59375 0.578125 1.4375 0.859375q0.859375 0.28125 1.90625 0.28125q0.53125 0 1.078125 -0.0625q0.5625 -0.046875 1.078125 -0.140625q0.515625 -0.09375 0.96875 -0.234375q0.46875 -0.15625 0.8125 -0.359375l-0.328125 -2.234373q-0.21875 0.0625 -0.53125 0.125q-0.3125 0.046875 -0.65625 0.09375q-0.359375 0.0625 -0.765625 0.109375q-0.390625 0.03125 -0.765625 0.03125q-0.515625 0 -0.9375 -0.109375q-0.40625 -0.125 -0.703125 -0.40625q-0.28125 -0.28125 -0.453125 -0.734375q-0.15625 -0.46875 -0.15625 -1.15625l0 -5.453125l4.734375 0l0 -2.40625l-4.734375 0l0 -3.09375z" fill-rule="nonzero"/><path fill="#000000" fill-opacity="0.0" d="m44.14042 94.3703l0 0c0 -6.1230927 4.963745 -11.086838 11.086838 -11.086838l218.39325 0c2.9403992 0 5.760376 1.1680756 7.839569 3.247261c2.079193 2.0791855 3.2472534 4.8991623 3.2472534 7.8395767l0 44.34601c0 6.1230927 -4.963745 11.086838 -11.0868225 11.086838l-218.39325 0c-6.1230927 0 -11.086838 -4.963745 -11.086838 -11.086838z" fill-rule="evenodd"/><path stroke="#666666" stroke-width="4.0" stroke-linejoin="round" stroke-linecap="butt" d="m44.14042 94.3703l0 0c0 -6.1230927 4.963745 -11.086838 11.086838 -11.086838l218.39325 0c2.9403992 0 5.760376 1.1680756 7.839569 3.247261c2.079193 2.0791855 3.2472534 4.8991623 3.2472534 7.8395767l0 44.34601c0 6.1230927 -4.963745 11.086838 -11.0868225 11.086838l-218.39325 0c-6.1230927 0 -11.086838 -4.963745 -11.086838 -11.086838z" fill-rule="evenodd"/><path fill="#000000" fill-opacity="0.0" d="m44.14042 184.97003l0 0c0 -6.1230774 4.963745 -11.0868225 11.086838 -11.0868225l218.39325 0c2.9403992 0 5.760376 1.1680603 7.839569 3.2472534c2.079193 2.0791779 3.2472534 4.89917 3.2472534 7.839569l0 44.346024c0 6.1230927 -4.963745 11.086838 -11.0868225 11.086838l-218.39325 0c-6.1230927 0 -11.086838 -4.963745 -11.086838 -11.086838z" fill-rule="evenodd"/><path stroke="#666666" stroke-width="4.0" stroke-linejoin="round" stroke-linecap="butt" d="m44.14042 184.97003l0 0c0 -6.1230774 4.963745 -11.0868225 11.086838 -11.0868225l218.39325 0c2.9403992 0 5.760376 1.1680603 7.839569 3.2472534c2.079193 2.0791779 3.2472534 4.89917 3.2472534 7.839569l0 44.346024c0 6.1230927 -4.963745 11.086838 -11.0868225 11.086838l-218.39325 0c-6.1230927 0 -11.086838 -4.963745 -11.086838 -11.086838z" fill-rule="evenodd"/><path fill="#000000" fill-opacity="0.0" d="m44.14042 275.56976l0 0c0 -6.1230774 4.963745 -11.0868225 11.086838 -11.0868225l218.39325 0c2.9403992 0 5.760376 1.1680603 7.839569 3.2472534c2.079193 2.079193 3.2472534 4.89917 3.2472534 7.839569l0 44.34604c0 6.1230774 -4.963745 11.0868225 -11.0868225 11.0868225l-218.39325 0c-6.1230927 0 -11.086838 -4.963745 -11.086838 -11.0868225z" fill-rule="evenodd"/><path stroke="#666666" stroke-width="4.0" stroke-linejoin="round" stroke-linecap="butt" d="m44.14042 275.56976l0 0c0 -6.1230774 4.963745 -11.0868225 11.086838 -11.0868225l218.39325 0c2.9403992 0 5.760376 1.1680603 7.839569 3.2472534c2.079193 2.079193 3.2472534 4.89917 3.2472534 7.839569l0 44.34604c0 6.1230774 -4.963745 11.0868225 -11.0868225 11.0868225l-218.39325 0c-6.1230927 0 -11.086838 -4.963745 -11.086838 -11.0868225z" fill-rule="evenodd"/><path fill="#000000" fill-opacity="0.0" d="m336.32678 184.97134l0 0c0 -6.1230774 4.963745 -11.0868225 11.0868225 -11.0868225l123.27515 0c2.9404297 0 5.7604065 1.1680603 7.839569 3.2472534c2.079193 2.0791779 3.247284 4.89917 3.247284 7.839569l0 44.346024c0 6.1230927 -4.963745 11.086838 -11.086853 11.086838l-123.27515 0c-6.1230774 0 -11.0868225 -4.963745 -11.0868225 -11.086838z" fill-rule="evenodd"/><path stroke="#666666" stroke-width="4.0" stroke-linejoin="round" stroke-linecap="butt" d="m336.32678 184.97134l0 0c0 -6.1230774 4.963745 -11.0868225 11.0868225 -11.0868225l123.27515 0c2.9404297 0 5.7604065 1.1680603 7.839569 3.2472534c2.079193 2.0791779 3.247284 4.89917 3.247284 7.839569l0 44.346024c0 6.1230927 -4.963745 11.086838 -11.086853 11.086838l-123.27515 0c-6.1230774 0 -11.0868225 -4.963745 -11.0868225 -11.086838z" fill-rule="evenodd"/><path fill="#000000" fill-opacity="0.0" d="m81.9042 94.49606l165.03937 0l0 44.094482l-165.03937 0z" fill-rule="evenodd"/><path fill="#666666" d="m113.69146 112.161064l0 -2.6875l-13.765625 0l0 2.6875l5.203125 0l0 14.375l3.296875 0l0 -14.375l5.265625 0zm11.089844 1.453125q-1.28125 0 -2.359375 0.625q-1.078125 0.609375 -1.859375 1.6875l-0.015625 -0.28125l-0.125 -1.796875l-3.046875 0l0 12.6875l3.265625 0l0 -7.625q0.21875 -0.53125 0.5625 -0.921875q0.34375 -0.40625 0.8125 -0.671875q0.40625 -0.21875 0.90625 -0.328125q0.515625 -0.109375 1.15625 -0.109375q0.609375 0 1.28125 0.078125q0.671875 0.078125 1.3125 0.21875l0.484375 -3.234375q-0.390625 -0.125 -1.015625 -0.21875q-0.625 -0.109375 -1.359375 -0.109375zm13.214851 12.921875l3.296875 0l0 -0.203125q-0.234375 -0.484375 -0.375 -1.140625q-0.125 -0.671875 -0.125 -1.6875l0 -5.4375q0 -1.109375 -0.40625 -1.9375q-0.40625 -0.84375 -1.140625 -1.390625q-0.71875 -0.5625 -1.71875 -0.84375q-0.984375 -0.28125 -2.140625 -0.28125q-1.265625 0 -2.265625 0.328125q-0.984375 0.328125 -1.671875 0.875q-0.6875 0.546875 -1.046875 1.28125q-0.359375 0.71875 -0.359375 1.53125l3.265625 0q0 -0.34375 0.09375 -0.625q0.109375 -0.28125 0.3125 -0.484375q0.234375 -0.21875 0.609375 -0.34375q0.375 -0.125 0.890625 -0.125q0.59375 0 1.03125 0.15625q0.4375 0.140625 0.734375 0.40625q0.28125 0.265625 0.421875 0.625q0.140625 0.359375 0.140625 0.796875l0 0.75l-1.828125 0q-1.40625 0 -2.484375 0.25q-1.078125 0.25 -1.828125 0.734375q-0.8125 0.53125 -1.234375 1.34375q-0.40625 0.8125 -0.40625 1.875q0 0.8125 0.328125 1.515625q0.328125 0.6875 0.921875 1.203125q0.578125 0.5 1.390625 0.78125q0.828125 0.28125 1.796875 0.28125q0.59375 0 1.109375 -0.109375q0.515625 -0.109375 0.953125 -0.3125q0.421875 -0.1875 0.765625 -0.4375q0.359375 -0.265625 0.625 -0.5625q0.0625 0.34375 0.140625 0.65625q0.078125 0.296875 0.203125 0.53125zm-3.109375 -2.28125q-0.453125 0 -0.796875 -0.109375q-0.34375 -0.125 -0.578125 -0.3125q-0.234375 -0.1875 -0.359375 -0.46875q-0.125 -0.296875 -0.125 -0.640625q0 -0.4375 0.15625 -0.796875q0.171875 -0.375 0.515625 -0.640625q0.328125 -0.265625 0.859375 -0.40625q0.546875 -0.140625 1.3125 -0.140625l1.671875 0l0 2.171875q-0.140625 0.25 -0.390625 0.5q-0.25 0.234375 -0.59375 0.421875q-0.328125 0.1875 -0.75 0.3125q-0.421875 0.109375 -0.921875 0.109375zm15.199219 -0.09375q-0.78125 0 -1.296875 -0.3125q-0.5 -0.3125 -0.796875 -0.84375q-0.3125 -0.515625 -0.4375 -1.203125q-0.109375 -0.6875 -0.109375 -1.421875l0 -0.34375q0 -0.734375 0.125 -1.40625q0.125 -0.6875 0.4375 -1.21875q0.28125 -0.515625 0.78125 -0.828125q0.515625 -0.328125 1.28125 -0.328125q0.53125 0 0.96875 0.1875q0.453125 0.171875 0.765625 0.484375q0.328125 0.296875 0.484375 0.71875q0.171875 0.421875 0.140625 0.890625l3.078125 0q0.015625 -1.125 -0.390625 -2.03125q-0.390625 -0.90625 -1.109375 -1.546875q-0.71875 -0.640625 -1.71875 -0.984375q-1.0 -0.359375 -2.171875 -0.359375q-1.453125 0 -2.5625 0.515625q-1.109375 0.5 -1.859375 1.359375q-0.75 0.875 -1.125 2.046875q-0.375 1.15625 -0.375 2.5l0 0.34375q0 1.34375 0.375 2.515625q0.390625 1.15625 1.140625 2.015625q0.734375 0.875 1.84375 1.375q1.109375 0.5 2.59375 0.5q1.09375 0 2.0625 -0.34375q0.984375 -0.359375 1.71875 -0.96875q0.734375 -0.609375 1.15625 -1.453125q0.4375 -0.84375 0.421875 -1.828125l-3.078125 0q0.03125 0.453125 -0.15625 0.8125q-0.1875 0.359375 -0.515625 0.625q-0.328125 0.25 -0.765625 0.390625q-0.421875 0.140625 -0.90625 0.140625zm13.558594 -2.859375l3.59375 5.234375l4.0 0l-5.453125 -7.390625l4.78125 -5.296875l-3.90625 0l-3.5 3.84375l-0.984375 1.125l0 -10.28125l-3.265625 0l0 18.0l3.265625 0l0 -3.875l1.46875 -1.359375zm15.792969 5.46875q1.828125 0 3.171875 -0.71875q1.359375 -0.71875 1.984375 -1.59375l-1.640625 -1.75q-0.5625 0.71875 -1.46875 1.09375q-0.890625 0.359375 -1.859375 0.359375q-0.671875 0 -1.25 -0.203125q-0.578125 -0.21875 -1.015625 -0.609375q-0.4375 -0.375 -0.703125 -0.828125q-0.25 -0.46875 -0.40625 -1.234375l0 -0.03125l8.59375 0l0 -1.390625q0 -1.390625 -0.390625 -2.546875q-0.375 -1.15625 -1.125 -1.96875q-0.75 -0.828125 -1.828125 -1.28125q-1.0625 -0.453125 -2.4375 -0.453125q-1.3125 0 -2.4375 0.484375q-1.125 0.484375 -1.953125 1.34375q-0.8125 0.875 -1.28125 2.078125q-0.453125 1.203125 -0.453125 2.65625l0 0.46875q0 1.265625 0.453125 2.390625q0.46875 1.125 1.328125 1.9375q0.859375 0.828125 2.046875 1.3125q1.203125 0.484375 2.671875 0.484375zm-0.390625 -10.515625q0.625 0 1.09375 0.203125q0.46875 0.1875 0.796875 0.515625q0.328125 0.34375 0.515625 0.796875q0.1875 0.453125 0.1875 0.96875l0 0.265625l-5.34375 0q0.125 -0.625 0.359375 -1.125q0.234375 -0.515625 0.578125 -0.875q0.34375 -0.359375 0.796875 -0.546875q0.46875 -0.203125 1.015625 -0.203125zm17.746094 -2.640625q-1.28125 0 -2.359375 0.625q-1.078125 0.609375 -1.859375 1.6875l-0.015625 -0.28125l-0.125 -1.796875l-3.046875 0l0 12.6875l3.265625 0l0 -7.625q0.21875 -0.53125 0.5625 -0.921875q0.34375 -0.40625 0.8125 -0.671875q0.40625 -0.21875 0.90625 -0.328125q0.515625 -0.109375 1.15625 -0.109375q0.609375 0 1.28125 0.078125q0.671875 0.078125 1.3125 0.21875l0.484375 -3.234375q-0.390625 -0.125 -1.015625 -0.21875q-0.625 -0.109375 -1.359375 -0.109375zm27.679688 12.921875l0 -17.0625l-0.1875 0l-7.421875 2.6875l0 2.828125l4.3125 -1.546875l0 13.09375l3.296875 0z" fill-rule="nonzero"/><path fill="#000000" fill-opacity="0.0" d="m81.9042 185.0958l165.03937 0l0 44.094498l-165.03937 0z" fill-rule="evenodd"/><path fill="#666666" d="m113.69146 202.7608l0 -2.6875l-13.765625 0l0 2.6875l5.203125 0l0 14.375l3.296875 0l0 -14.375l5.265625 0zm11.089844 1.453125q-1.28125 0 -2.359375 0.625q-1.078125 0.609375 -1.859375 1.6875l-0.015625 -0.28125l-0.125 -1.796875l-3.046875 0l0 12.6875l3.265625 0l0 -7.625q0.21875 -0.53125 0.5625 -0.921875q0.34375 -0.40625 0.8125 -0.671875q0.40625 -0.21875 0.90625 -0.328125q0.515625 -0.109375 1.15625 -0.109375q0.609375 0 1.28125 0.078125q0.671875 0.078125 1.3125 0.21875l0.484375 -3.234375q-0.390625 -0.125 -1.015625 -0.21875q-0.625 -0.109375 -1.359375 -0.109375zm13.214851 12.921875l3.296875 0l0 -0.203125q-0.234375 -0.484375 -0.375 -1.140625q-0.125 -0.671875 -0.125 -1.6875l0 -5.4375q0 -1.109375 -0.40625 -1.9375q-0.40625 -0.84375 -1.140625 -1.390625q-0.71875 -0.5625 -1.71875 -0.84375q-0.984375 -0.28125 -2.140625 -0.28125q-1.265625 0 -2.265625 0.328125q-0.984375 0.328125 -1.671875 0.875q-0.6875 0.546875 -1.046875 1.28125q-0.359375 0.71875 -0.359375 1.53125l3.265625 0q0 -0.34375 0.09375 -0.625q0.109375 -0.28125 0.3125 -0.484375q0.234375 -0.21875 0.609375 -0.34375q0.375 -0.125 0.890625 -0.125q0.59375 0 1.03125 0.15625q0.4375 0.140625 0.734375 0.40625q0.28125 0.265625 0.421875 0.625q0.140625 0.359375 0.140625 0.796875l0 0.75l-1.828125 0q-1.40625 0 -2.484375 0.25q-1.078125 0.25 -1.828125 0.734375q-0.8125 0.53125 -1.234375 1.34375q-0.40625 0.8125 -0.40625 1.875q0 0.8125 0.328125 1.515625q0.328125 0.6875 0.921875 1.203125q0.578125 0.5 1.390625 0.78125q0.828125 0.28125 1.796875 0.28125q0.59375 0 1.109375 -0.109375q0.515625 -0.109375 0.953125 -0.3125q0.421875 -0.1875 0.765625 -0.4375q0.359375 -0.265625 0.625 -0.5625q0.0625 0.34375 0.140625 0.65625q0.078125 0.296875 0.203125 0.53125zm-3.109375 -2.28125q-0.453125 0 -0.796875 -0.109375q-0.34375 -0.125 -0.578125 -0.3125q-0.234375 -0.1875 -0.359375 -0.46875q-0.125 -0.296875 -0.125 -0.640625q0 -0.4375 0.15625 -0.796875q0.171875 -0.375 0.515625 -0.640625q0.328125 -0.265625 0.859375 -0.40625q0.546875 -0.140625 1.3125 -0.140625l1.671875 0l0 2.171875q-0.140625 0.25 -0.390625 0.5q-0.25 0.234375 -0.59375 0.421875q-0.328125 0.1875 -0.75 0.3125q-0.421875 0.109375 -0.921875 0.109375zm15.199219 -0.09375q-0.78125 0 -1.296875 -0.3125q-0.5 -0.3125 -0.796875 -0.84375q-0.3125 -0.515625 -0.4375 -1.203125q-0.109375 -0.6875 -0.109375 -1.421875l0 -0.34375q0 -0.734375 0.125 -1.40625q0.125 -0.6875 0.4375 -1.21875q0.28125 -0.515625 0.78125 -0.828125q0.515625 -0.328125 1.28125 -0.328125q0.53125 0 0.96875 0.1875q0.453125 0.171875 0.765625 0.484375q0.328125 0.296875 0.484375 0.71875q0.171875 0.421875 0.140625 0.890625l3.078125 0q0.015625 -1.125 -0.390625 -2.03125q-0.390625 -0.90625 -1.109375 -1.546875q-0.71875 -0.640625 -1.71875 -0.984375q-1.0 -0.359375 -2.171875 -0.359375q-1.453125 0 -2.5625 0.515625q-1.109375 0.5 -1.859375 1.359375q-0.75 0.875 -1.125 2.046875q-0.375 1.15625 -0.375 2.5l0 0.34375q0 1.34375 0.375 2.515625q0.390625 1.15625 1.140625 2.015625q0.734375 0.875 1.84375 1.375q1.109375 0.5 2.59375 0.5q1.09375 0 2.0625 -0.34375q0.984375 -0.359375 1.71875 -0.96875q0.734375 -0.609375 1.15625 -1.453125q0.4375 -0.84375 0.421875 -1.828125l-3.078125 0q0.03125 0.453125 -0.15625 0.8125q-0.1875 0.359375 -0.515625 0.625q-0.328125 0.25 -0.765625 0.390625q-0.421875 0.140625 -0.90625 0.140625zm13.558594 -2.859375l3.59375 5.234375l4.0 0l-5.453125 -7.390625l4.78125 -5.296875l-3.90625 0l-3.5 3.84375l-0.984375 1.125l0 -10.28125l-3.265625 0l0 18.0l3.265625 0l0 -3.875l1.46875 -1.359375zm15.792969 5.46875q1.828125 0 3.171875 -0.71875q1.359375 -0.71875 1.984375 -1.59375l-1.640625 -1.75q-0.5625 0.71875 -1.46875 1.09375q-0.890625 0.359375 -1.859375 0.359375q-0.671875 0 -1.25 -0.203125q-0.578125 -0.21875 -1.015625 -0.609375q-0.4375 -0.375 -0.703125 -0.828125q-0.25 -0.46875 -0.40625 -1.234375l0 -0.03125l8.59375 0l0 -1.390625q0 -1.390625 -0.390625 -2.546875q-0.375 -1.15625 -1.125 -1.96875q-0.75 -0.828125 -1.828125 -1.28125q-1.0625 -0.453125 -2.4375 -0.453125q-1.3125 0 -2.4375 0.484375q-1.125 0.484375 -1.953125 1.34375q-0.8125 0.875 -1.28125 2.078125q-0.453125 1.203125 -0.453125 2.65625l0 0.46875q0 1.265625 0.453125 2.390625q0.46875 1.125 1.328125 1.9375q0.859375 0.828125 2.046875 1.3125q1.203125 0.484375 2.671875 0.484375zm-0.390625 -10.515625q0.625 0 1.09375 0.203125q0.46875 0.1875 0.796875 0.515625q0.328125 0.34375 0.515625 0.796875q0.1875 0.453125 0.1875 0.96875l0 0.265625l-5.34375 0q0.125 -0.625 0.359375 -1.125q0.234375 -0.515625 0.578125 -0.875q0.34375 -0.359375 0.796875 -0.546875q0.46875 -0.203125 1.015625 -0.203125zm17.746094 -2.640625q-1.28125 0 -2.359375 0.625q-1.078125 0.609375 -1.859375 1.6875l-0.015625 -0.28125l-0.125 -1.796875l-3.046875 0l0 12.6875l3.265625 0l0 -7.625q0.21875 -0.53125 0.5625 -0.921875q0.34375 -0.40625 0.8125 -0.671875q0.40625 -0.21875 0.90625 -0.328125q0.515625 -0.109375 1.15625 -0.109375q0.609375 0 1.28125 0.078125q0.671875 0.078125 1.3125 0.21875l0.484375 -3.234375q-0.390625 -0.125 -1.015625 -0.21875q-0.625 -0.109375 -1.359375 -0.109375zm30.851562 12.921875l0 -2.609375l-7.484375 0l3.203125 -3.40625q0.828125 -0.859375 1.5 -1.625q0.6875 -0.78125 1.1875 -1.53125q0.484375 -0.75 0.734375 -1.515625q0.265625 -0.78125 0.265625 -1.625q0 -1.109375 -0.359375 -2.03125q-0.34375 -0.921875 -1.0 -1.578125q-0.6875 -0.65625 -1.6875 -1.015625q-1.0 -0.359375 -2.296875 -0.359375q-1.359375 0 -2.484375 0.4375q-1.125 0.4375 -1.90625 1.203125q-0.796875 0.765625 -1.234375 1.78125q-0.421875 1.0 -0.421875 2.140625l3.265625 0q0 -0.6875 0.171875 -1.21875q0.171875 -0.546875 0.515625 -0.90625q0.328125 -0.359375 0.828125 -0.53125q0.5 -0.1875 1.15625 -0.1875q0.5 0 0.90625 0.171875q0.421875 0.15625 0.734375 0.453125q0.296875 0.328125 0.453125 0.78125q0.171875 0.4375 0.171875 1.0q0 0.390625 -0.125 0.8125q-0.125 0.40625 -0.390625 0.875q-0.28125 0.46875 -0.734375 1.046875q-0.4375 0.578125 -1.09375 1.28125l-5.515625 5.921875l0 2.234375l11.640625 0z" fill-rule="nonzero"/><path fill="#000000" fill-opacity="0.0" d="m81.9042 275.69815l165.03937 0l0 44.094513l-165.03937 0z" fill-rule="evenodd"/><path fill="#666666" d="m113.69146 293.36316l0 -2.6875l-13.765625 0l0 2.6875l5.203125 0l0 14.375l3.296875 0l0 -14.375l5.265625 0zm11.089844 1.453125q-1.28125 0 -2.359375 0.625q-1.078125 0.609375 -1.859375 1.6875l-0.015625 -0.28125l-0.125 -1.796875l-3.046875 0l0 12.6875l3.265625 0l0 -7.625q0.21875 -0.53125 0.5625 -0.921875q0.34375 -0.40625 0.8125 -0.671875q0.40625 -0.21875 0.90625 -0.328125q0.515625 -0.109375 1.15625 -0.109375q0.609375 0 1.28125 0.078125q0.671875 0.078125 1.3125 0.21875l0.484375 -3.234375q-0.390625 -0.125 -1.015625 -0.21875q-0.625 -0.109375 -1.359375 -0.109375zm13.214851 12.921875l3.296875 0l0 -0.203125q-0.234375 -0.484375 -0.375 -1.140625q-0.125 -0.671875 -0.125 -1.6875l0 -5.4375q0 -1.109375 -0.40625 -1.9375q-0.40625 -0.84375 -1.140625 -1.390625q-0.71875 -0.5625 -1.71875 -0.84375q-0.984375 -0.28125 -2.140625 -0.28125q-1.265625 0 -2.265625 0.328125q-0.984375 0.328125 -1.671875 0.875q-0.6875 0.546875 -1.046875 1.28125q-0.359375 0.71875 -0.359375 1.53125l3.265625 0q0 -0.34375 0.09375 -0.625q0.109375 -0.28125 0.3125 -0.484375q0.234375 -0.21875 0.609375 -0.34375q0.375 -0.125 0.890625 -0.125q0.59375 0 1.03125 0.15625q0.4375 0.140625 0.734375 0.40625q0.28125 0.265625 0.421875 0.625q0.140625 0.359375 0.140625 0.796875l0 0.75l-1.828125 0q-1.40625 0 -2.484375 0.25q-1.078125 0.25 -1.828125 0.734375q-0.8125 0.53125 -1.234375 1.34375q-0.40625 0.8125 -0.40625 1.875q0 0.8125 0.328125 1.515625q0.328125 0.6875 0.921875 1.203125q0.578125 0.5 1.390625 0.78125q0.828125 0.28125 1.796875 0.28125q0.59375 0 1.109375 -0.109375q0.515625 -0.109375 0.953125 -0.3125q0.421875 -0.1875 0.765625 -0.4375q0.359375 -0.265625 0.625 -0.5625q0.0625 0.34375 0.140625 0.65625q0.078125 0.296875 0.203125 0.53125zm-3.109375 -2.28125q-0.453125 0 -0.796875 -0.109375q-0.34375 -0.125 -0.578125 -0.3125q-0.234375 -0.1875 -0.359375 -0.46875q-0.125 -0.296875 -0.125 -0.640625q0 -0.4375 0.15625 -0.796875q0.171875 -0.375 0.515625 -0.640625q0.328125 -0.265625 0.859375 -0.40625q0.546875 -0.140625 1.3125 -0.140625l1.671875 0l0 2.171875q-0.140625 0.25 -0.390625 0.5q-0.25 0.234375 -0.59375 0.421875q-0.328125 0.1875 -0.75 0.3125q-0.421875 0.109375 -0.921875 0.109375zm15.199219 -0.09375q-0.78125 0 -1.296875 -0.3125q-0.5 -0.3125 -0.796875 -0.84375q-0.3125 -0.515625 -0.4375 -1.203125q-0.109375 -0.6875 -0.109375 -1.421875l0 -0.34375q0 -0.734375 0.125 -1.40625q0.125 -0.6875 0.4375 -1.21875q0.28125 -0.515625 0.78125 -0.828125q0.515625 -0.328125 1.28125 -0.328125q0.53125 0 0.96875 0.1875q0.453125 0.171875 0.765625 0.484375q0.328125 0.296875 0.484375 0.71875q0.171875 0.421875 0.140625 0.890625l3.078125 0q0.015625 -1.125 -0.390625 -2.03125q-0.390625 -0.90625 -1.109375 -1.546875q-0.71875 -0.640625 -1.71875 -0.984375q-1.0 -0.359375 -2.171875 -0.359375q-1.453125 0 -2.5625 0.515625q-1.109375 0.5 -1.859375 1.359375q-0.75 0.875 -1.125 2.046875q-0.375 1.15625 -0.375 2.5l0 0.34375q0 1.34375 0.375 2.515625q0.390625 1.15625 1.140625 2.015625q0.734375 0.875 1.84375 1.375q1.109375 0.5 2.59375 0.5q1.09375 0 2.0625 -0.34375q0.984375 -0.359375 1.71875 -0.96875q0.734375 -0.609375 1.15625 -1.453125q0.4375 -0.84375 0.421875 -1.828125l-3.078125 0q0.03125 0.453125 -0.15625 0.8125q-0.1875 0.359375 -0.515625 0.625q-0.328125 0.25 -0.765625 0.390625q-0.421875 0.140625 -0.90625 0.140625zm13.558594 -2.859375l3.59375 5.234375l4.0 0l-5.453125 -7.390625l4.78125 -5.296875l-3.90625 0l-3.5 3.84375l-0.984375 1.125l0 -10.28125l-3.265625 0l0 18.0l3.265625 0l0 -3.875l1.46875 -1.359375zm15.792969 5.46875q1.828125 0 3.171875 -0.71875q1.359375 -0.71875 1.984375 -1.59375l-1.640625 -1.75q-0.5625 0.71875 -1.46875 1.09375q-0.890625 0.359375 -1.859375 0.359375q-0.671875 0 -1.25 -0.203125q-0.578125 -0.21875 -1.015625 -0.609375q-0.4375 -0.375 -0.703125 -0.828125q-0.25 -0.46875 -0.40625 -1.234375l0 -0.03125l8.59375 0l0 -1.390625q0 -1.390625 -0.390625 -2.546875q-0.375 -1.15625 -1.125 -1.96875q-0.75 -0.828125 -1.828125 -1.28125q-1.0625 -0.453125 -2.4375 -0.453125q-1.3125 0 -2.4375 0.484375q-1.125 0.484375 -1.953125 1.34375q-0.8125 0.875 -1.28125 2.078125q-0.453125 1.203125 -0.453125 2.65625l0 0.46875q0 1.265625 0.453125 2.390625q0.46875 1.125 1.328125 1.9375q0.859375 0.828125 2.046875 1.3125q1.203125 0.484375 2.671875 0.484375zm-0.390625 -10.515625q0.625 0 1.09375 0.203125q0.46875 0.1875 0.796875 0.515625q0.328125 0.34375 0.515625 0.796875q0.1875 0.453125 0.1875 0.96875l0 0.265625l-5.34375 0q0.125 -0.625 0.359375 -1.125q0.234375 -0.515625 0.578125 -0.875q0.34375 -0.359375 0.796875 -0.546875q0.46875 -0.203125 1.015625 -0.203125zm17.746094 -2.640625q-1.28125 0 -2.359375 0.625q-1.078125 0.609375 -1.859375 1.6875l-0.015625 -0.28125l-0.125 -1.796875l-3.046875 0l0 12.6875l3.265625 0l0 -7.625q0.21875 -0.53125 0.5625 -0.921875q0.34375 -0.40625 0.8125 -0.671875q0.40625 -0.21875 0.90625 -0.328125q0.515625 -0.109375 1.15625 -0.109375q0.609375 0 1.28125 0.078125q0.671875 0.078125 1.3125 0.21875l0.484375 -3.234375q-0.390625 -0.125 -1.015625 -0.21875q-0.625 -0.109375 -1.359375 -0.109375zm30.820312 12.921875l0 -17.0625l-3.296875 0l-0.015625 10.953125l-4.703125 -10.953125l-3.328125 0l0 17.0625l3.328125 0l0 -11.0l4.734375 11.0l3.28125 0z" fill-rule="nonzero"/><path fill="#000000" fill-opacity="0.0" d="m353.19156 184.2546l110.92914 0l0 44.094482l-110.92914 0z" fill-rule="evenodd"/><path fill="#666666" d="m399.8495 216.2946l0 -17.0625l-3.25 0l0 7.0l-4.828125 0l0 -7.0l-3.28125 0l0 17.0625l3.28125 0l0 -7.390625l4.828125 0l0 7.390625l3.25 0zm11.527344 0l2.953125 0l0 -12.6875l-3.265625 0l0 8.90625q-0.15625 0.296875 -0.375 0.546875q-0.203125 0.25 -0.46875 0.421875q-0.3125 0.203125 -0.734375 0.3125q-0.40625 0.09375 -0.921875 0.09375q-0.578125 0 -0.984375 -0.140625q-0.390625 -0.140625 -0.640625 -0.46875q-0.25 -0.3125 -0.359375 -0.84375q-0.109375 -0.53125 -0.109375 -1.296875l0 -7.53125l-3.25 0l0 7.5q0 1.453125 0.3125 2.484375q0.328125 1.015625 0.90625 1.671875q0.59375 0.671875 1.40625 0.984375q0.828125 0.296875 1.8125 0.296875q1.078125 0 1.984375 -0.53125q0.90625 -0.546875 1.546875 -1.5l0.1875 1.78125zm17.558594 -6.21875l0 -0.234375q0 -1.15625 -0.203125 -2.15625q-0.203125 -1.015625 -0.625 -1.828125q-0.265625 -0.5 -0.625 -0.921875q-0.34375 -0.4375 -0.78125 -0.734375q-0.546875 -0.40625 -1.234375 -0.609375q-0.671875 -0.21875 -1.5 -0.21875q-0.59375 0 -1.109375 0.125q-0.5 0.125 -0.9375 0.375q-0.3125 0.15625 -0.578125 0.390625q-0.265625 0.234375 -0.5 0.5l0 -6.46875l-3.265625 0l0 18.0l2.9375 0l0.15625 -1.34375q0.1875 0.25 0.40625 0.46875q0.234375 0.21875 0.484375 0.390625q0.484375 0.359375 1.078125 0.53125q0.609375 0.1875 1.359375 0.1875q0.796875 0 1.46875 -0.203125q0.6875 -0.203125 1.21875 -0.59375q0.59375 -0.40625 1.03125 -1.03125q0.453125 -0.625 0.71875 -1.390625q0.25 -0.6875 0.375 -1.5q0.125 -0.8125 0.125 -1.734375zm-3.25 -0.234375l0 0.234375q0 0.5 -0.046875 0.953125q-0.046875 0.453125 -0.140625 0.84375q-0.109375 0.53125 -0.34375 0.953125q-0.21875 0.40625 -0.59375 0.671875q-0.25 0.1875 -0.609375 0.296875q-0.34375 0.09375 -0.78125 0.09375q-0.5 0 -0.890625 -0.109375q-0.390625 -0.125 -0.6875 -0.34375q-0.25 -0.171875 -0.4375 -0.40625q-0.171875 -0.25 -0.3125 -0.546875l0 -5.046875q0.109375 -0.21875 0.234375 -0.40625q0.125 -0.203125 0.28125 -0.359375q0.3125 -0.3125 0.75 -0.46875q0.453125 -0.171875 1.046875 -0.171875q0.421875 0 0.765625 0.109375q0.34375 0.09375 0.609375 0.28125q0.40625 0.328125 0.609375 0.703125q0.21875 0.375 0.34375 0.859375q0.109375 0.40625 0.15625 0.875q0.046875 0.46875 0.046875 0.984375z" fill-rule="nonzero"/><path fill="#000000" fill-opacity="0.0" d="m284.70734 116.543304l54.26773 59.244095" fill-rule="evenodd"/><path stroke="#666666" stroke-width="2.0" stroke-linejoin="round" stroke-linecap="butt" d="m284.70734 116.543304l46.16223 50.395325" fill-rule="evenodd"/><path fill="#666666" stroke="#666666" stroke-width="2.0" stroke-linecap="butt" d="m328.4336 169.16998l8.566559 4.4614105l-3.6946106 -8.924118z" fill-rule="evenodd"/><path fill="#000000" fill-opacity="0.0" d="m284.70734 207.14305l51.62207 0" fill-rule="evenodd"/><path stroke="#666666" stroke-width="2.0" stroke-linejoin="round" stroke-linecap="butt" d="m284.70734 207.14305l39.62207 0" fill-rule="evenodd"/><path fill="#666666" stroke="#666666" stroke-width="2.0" stroke-linecap="butt" d="m324.3294 210.4465l9.076172 -3.3034515l-9.076172 -3.3034668z" fill-rule="evenodd"/><path fill="#000000" fill-opacity="0.0" d="m284.70734 297.74277l54.26773 -59.77951" fill-rule="evenodd"/><path stroke="#666666" stroke-width="2.0" stroke-linejoin="round" stroke-linecap="butt" d="m284.70734 297.74277l46.201935 -50.8945" fill-rule="evenodd"/><path fill="#666666" stroke="#666666" stroke-width="2.0" stroke-linecap="butt" d="m333.35522 249.06866l3.654602 -8.940582l-8.546478 4.499756z" fill-rule="evenodd"/><path fill="#000000" fill-opacity="0.0" d="m481.7756 207.14436l51.62204 -0.85040283" fill-rule="evenodd"/><path stroke="#666666" stroke-width="2.0" stroke-linejoin="round" stroke-linecap="butt" d="m481.7756 207.14436l39.623688 -0.65275574" fill-rule="evenodd"/><path fill="#666666" stroke="#666666" stroke-width="2.0" stroke-linecap="butt" d="m521.4537 209.79463l9.020569 -3.4525146l-9.129395 -3.1535187z" fill-rule="evenodd"/><path fill="#000000" fill-opacity="0.0" d="m533.395 184.12883l0 0c0 -6.1230927 4.963745 -11.086838 11.086853 -11.086838l218.39325 0c2.9403687 0 5.760376 1.1680756 7.8395386 3.2472687c2.0792236 2.0791779 3.2472534 4.8991547 3.2472534 7.839569l0 44.34601c0 6.1230927 -4.963745 11.086838 -11.086792 11.086838l-218.39325 0c-6.123108 0 -11.086853 -4.963745 -11.086853 -11.086838z" fill-rule="evenodd"/><path stroke="#666666" stroke-width="4.0" stroke-linejoin="round" stroke-linecap="butt" d="m533.395 184.12883l0 0c0 -6.1230927 4.963745 -11.086838 11.086853 -11.086838l218.39325 0c2.9403687 0 5.760376 1.1680756 7.8395386 3.2472687c2.0792236 2.0791779 3.2472534 4.8991547 3.2472534 7.839569l0 44.34601c0 6.1230927 -4.963745 11.086838 -11.086792 11.086838l-218.39325 0c-6.123108 0 -11.086853 -4.963745 -11.086853 -11.086838z" fill-rule="evenodd"/><path fill="#000000" fill-opacity="0.0" d="m571.1588 175.7874l165.03937 0l0 44.094498l-165.03937 0z" fill-rule="evenodd"/><path fill="#666666" d="m594.44604 190.76491l-4.09375 0l0 17.0625l3.03125 0l0 -5.046875l-0.140625 -7.671875l2.0 7.09375l1.625 0l2.25 -7.40625l-0.140625 7.984375l0 5.046875l3.015625 0l0 -17.0625l-4.09375 0l-1.828125 6.40625l-1.625 -6.40625zm16.636719 17.296875q1.828125 0 3.171875 -0.71875q1.359375 -0.71875 1.984375 -1.59375l-1.640625 -1.75q-0.5625 0.71875 -1.46875 1.09375q-0.890625 0.359375 -1.859375 0.359375q-0.671875 0 -1.25 -0.203125q-0.578125 -0.21875 -1.015625 -0.609375q-0.4375 -0.375 -0.703125 -0.828125q-0.25 -0.46875 -0.40625 -1.234375l0 -0.03125l8.59375 0l0 -1.390625q0 -1.390625 -0.390625 -2.546875q-0.375 -1.15625 -1.125 -1.96875q-0.75 -0.828125 -1.828125 -1.28125q-1.0625 -0.453125 -2.4375 -0.453125q-1.3125 0 -2.4375 0.484375q-1.125 0.484375 -1.953125 1.34375q-0.8125 0.875 -1.28125 2.078125q-0.453125 1.203125 -0.453125 2.65625l0 0.46875q0 1.265625 0.453125 2.390625q0.46875 1.125 1.328125 1.9375q0.859375 0.828125 2.046875 1.3125q1.203125 0.484375 2.671875 0.484375zm-0.390625 -10.515625q0.625 0 1.09375 0.203125q0.46875 0.1875 0.796875 0.515625q0.328125 0.34375 0.515625 0.796875q0.1875 0.453125 0.1875 0.96875l0 0.265625l-5.34375 0q0.125 -0.625 0.359375 -1.125q0.234375 -0.515625 0.578125 -0.875q0.34375 -0.359375 0.796875 -0.546875q0.46875 -0.203125 1.015625 -0.203125zm14.605469 -5.5l-3.25 0l0 3.09375l-2.890625 0l0 2.40625l2.890625 0l0 5.765625q0 1.25 0.328125 2.15625q0.328125 0.890625 0.9375 1.46875q0.59375 0.578125 1.4375 0.859375q0.859375 0.28125 1.90625 0.28125q0.53125 0 1.078125 -0.0625q0.5625 -0.046875 1.078125 -0.140625q0.515625 -0.09375 0.96875 -0.234375q0.46875 -0.15625 0.8125 -0.359375l-0.328125 -2.234375q-0.21875 0.0625 -0.53125 0.125q-0.3125 0.046875 -0.65625 0.09375q-0.359375 0.0625 -0.765625 0.109375q-0.390625 0.03125 -0.765625 0.03125q-0.515625 0 -0.9375 -0.109375q-0.40625 -0.125 -0.703125 -0.40625q-0.28125 -0.28125 -0.453125 -0.734375q-0.15625 -0.46875 -0.15625 -1.15625l0 -5.453125l4.734375 0l0 -2.40625l-4.734375 0l0 -3.09375zm17.542969 2.859375q-1.28125 0 -2.359375 0.625q-1.078125 0.609375 -1.859375 1.6875l-0.015625 -0.28125l-0.125 -1.796875l-3.046875 0l0 12.6875l3.265625 0l0 -7.625q0.21875 -0.53125 0.5625 -0.921875q0.34375 -0.40625 0.8125 -0.671875q0.40625 -0.21875 0.90625 -0.328125q0.515625 -0.109375 1.15625 -0.109375q0.609375 0 1.28125 0.078125q0.671875 0.078125 1.3125 0.21875l0.484375 -3.234375q-0.390625 -0.125 -1.015625 -0.21875q-0.625 -0.109375 -1.359375 -0.109375zm6.1523438 0.234375l0 2.671875l3.609375 0l0 7.359375l-3.609375 0l0 2.65625l10.34375 0l0 -2.65625l-3.4375 0l0 -10.03125l-6.90625 0zm3.375 -3.234375q0 0.375 0.140625 0.703125q0.140625 0.3125 0.375 0.53125q0.25 0.234375 0.59375 0.375q0.34375 0.125 0.765625 0.125q0.875 0 1.375 -0.484375q0.515625 -0.5 0.515625 -1.25q0 -0.765625 -0.515625 -1.25q-0.5 -0.484375 -1.375 -0.484375q-0.421875 0 -0.765625 0.125q-0.34375 0.125 -0.59375 0.34375q-0.234375 0.234375 -0.375 0.5625q-0.140625 0.328125 -0.140625 0.703125zm15.777344 13.546875q-0.78125 0 -1.296875 -0.3125q-0.5 -0.3125 -0.796875 -0.84375q-0.3125 -0.515625 -0.4375 -1.203125q-0.109375 -0.6875 -0.109375 -1.421875l0 -0.34375q0 -0.734375 0.125 -1.40625q0.125 -0.6875 0.4375 -1.21875q0.28125 -0.515625 0.78125 -0.828125q0.515625 -0.328125 1.28125 -0.328125q0.53125 0 0.96875 0.1875q0.453125 0.171875 0.765625 0.484375q0.328125 0.296875 0.484375 0.71875q0.171875 0.421875 0.140625 0.890625l3.078125 0q0.015625 -1.125 -0.390625 -2.03125q-0.390625 -0.90625 -1.109375 -1.546875q-0.71875 -0.640625 -1.71875 -0.984375q-1.0 -0.359375 -2.171875 -0.359375q-1.453125 0 -2.5625 0.515625q-1.109375 0.5 -1.859375 1.359375q-0.75 0.875 -1.125 2.046875q-0.375 1.15625 -0.375 2.5l0 0.34375q0 1.34375 0.375 2.515625q0.390625 1.15625 1.140625 2.015625q0.734375 0.875 1.84375 1.375q1.109375 0.5 2.59375 0.5q1.09375 0 2.0625 -0.34375q0.984375 -0.359375 1.71875 -0.96875q0.734375 -0.609375 1.15625 -1.453125q0.4375 -0.84375 0.421875 -1.828125l-3.078125 0q0.03125 0.453125 -0.15625 0.8125q-0.1875 0.359375 -0.515625 0.625q-0.328125 0.25 -0.765625 0.390625q-0.421875 0.140625 -0.90625 0.140625zm16.714844 2.375l3.296875 0l0 -0.203125q-0.234375 -0.484375 -0.375 -1.140625q-0.125 -0.671875 -0.125 -1.6875l0 -5.4375q0 -1.109375 -0.40625 -1.9375q-0.40625 -0.84375 -1.140625 -1.390625q-0.71875 -0.5625 -1.71875 -0.84375q-0.984375 -0.28125 -2.140625 -0.28125q-1.265625 0 -2.265625 0.328125q-0.984375 0.328125 -1.671875 0.875q-0.6875 0.546875 -1.046875 1.28125q-0.359375 0.71875 -0.359375 1.53125l3.265625 0q0 -0.34375 0.09375 -0.625q0.109375 -0.28125 0.3125 -0.484375q0.234375 -0.21875 0.609375 -0.34375q0.375 -0.125 0.890625 -0.125q0.59375 0 1.03125 0.15625q0.4375 0.140625 0.734375 0.40625q0.28125 0.265625 0.421875 0.625q0.140625 0.359375 0.140625 0.796875l0 0.75l-1.828125 0q-1.40625 0 -2.484375 0.25q-1.078125 0.25 -1.828125 0.734375q-0.8125 0.53125 -1.234375 1.34375q-0.40625 0.8125 -0.40625 1.875q0 0.8125 0.328125 1.515625q0.328125 0.6875 0.921875 1.203125q0.578125 0.5 1.390625 0.78125q0.828125 0.28125 1.796875 0.28125q0.59375 0 1.109375 -0.109375q0.515625 -0.109375 0.953125 -0.3125q0.421875 -0.1875 0.765625 -0.4375q0.359375 -0.265625 0.625 -0.5625q0.0625 0.34375 0.140625 0.65625q0.078125 0.296875 0.203125 0.53125zm-3.109375 -2.28125q-0.453125 0 -0.796875 -0.109375q-0.34375 -0.125 -0.578125 -0.3125q-0.234375 -0.1875 -0.359375 -0.46875q-0.125 -0.296875 -0.125 -0.640625q0 -0.4375 0.15625 -0.796875q0.171875 -0.375 0.515625 -0.640625q0.328125 -0.265625 0.859375 -0.40625q0.546875 -0.140625 1.3125 -0.140625l1.671875 0l0 2.171875q-0.140625 0.25 -0.390625 0.5q-0.25 0.234375 -0.59375 0.421875q-0.328125 0.1875 -0.75 0.3125q-0.421875 0.109375 -0.921875 0.109375zm10.261719 -15.71875l0 2.65625l3.796875 0l0 12.6875l-3.796875 0l0 2.65625l10.734375 0l0 -2.65625l-3.640625 0l0 -15.34375l-7.09375 0zm19.339844 15.625q-0.78125 0 -1.296875 -0.3125q-0.5 -0.3125 -0.796875 -0.84375q-0.3125 -0.515625 -0.4375 -1.203125q-0.109375 -0.6875 -0.109375 -1.421875l0 -0.34375q0 -0.734375 0.125 -1.40625q0.125 -0.6875 0.4375 -1.21875q0.28125 -0.515625 0.78125 -0.828125q0.515625 -0.328125 1.28125 -0.328125q0.53125 0 0.96875 0.1875q0.453125 0.171875 0.765625 0.484375q0.328125 0.296875 0.484375 0.71875q0.171875 0.421875 0.140625 0.890625l3.078125 0q0.015625 -1.125 -0.390625 -2.03125q-0.390625 -0.90625 -1.109375 -1.546875q-0.71875 -0.640625 -1.71875 -0.984375q-1.0 -0.359375 -2.171875 -0.359375q-1.453125 0 -2.5625 0.515625q-1.109375 0.5 -1.859375 1.359375q-0.75 0.875 -1.125 2.046875q-0.375 1.15625 -0.375 2.5l0 0.34375q0 1.34375 0.375 2.515625q0.390625 1.15625 1.140625 2.015625q0.734375 0.875 1.84375 1.375q1.109375 0.5 2.59375 0.5q1.09375 0 2.0625 -0.34375q0.984375 -0.359375 1.71875 -0.96875q0.734375 -0.609375 1.15625 -1.453125q0.4375 -0.84375 0.421875 -1.828125l-3.078125 0q0.03125 0.453125 -0.15625 0.8125q-0.1875 0.359375 -0.515625 0.625q-0.328125 0.25 -0.765625 0.390625q-0.421875 0.140625 -0.90625 0.140625z" fill-rule="nonzero"/><path fill="#000000" fill-opacity="0.0" d="m533.395 308.82962l0 0c0 -6.123108 4.963745 -11.086853 11.086853 -11.086853l218.39325 0c2.9403687 0 5.760376 1.1680908 7.8395386 3.247284c2.0792236 2.0791626 3.2472534 4.89917 3.2472534 7.839569l0 44.34601c0 6.123108 -4.963745 11.086853 -11.086792 11.086853l-218.39325 0c-6.123108 0 -11.086853 -4.963745 -11.086853 -11.086853z" fill-rule="evenodd"/><path stroke="#666666" stroke-width="4.0" stroke-linejoin="round" stroke-linecap="butt" d="m533.395 308.82962l0 0c0 -6.123108 4.963745 -11.086853 11.086853 -11.086853l218.39325 0c2.9403687 0 5.760376 1.1680908 7.8395386 3.247284c2.0792236 2.0791626 3.2472534 4.89917 3.2472534 7.839569l0 44.34601c0 6.123108 -4.963745 11.086853 -11.086792 11.086853l-218.39325 0c-6.123108 0 -11.086853 -4.963745 -11.086853 -11.086853z" fill-rule="evenodd"/><path fill="#000000" fill-opacity="0.0" d="m571.1588 308.95538l165.03937 0l0 44.094482l-165.03937 0z" fill-rule="evenodd"/><path fill="#666666" d="m604.7859 340.9954l6.21875 0q1.40625 0 2.53125 -0.3125q1.125 -0.328125 1.90625 -0.953125q0.796875 -0.640625 1.21875 -1.578125q0.421875 -0.9375 0.421875 -2.15625q0 -0.65625 -0.171875 -1.25q-0.171875 -0.609375 -0.53125 -1.125q-0.328125 -0.484375 -0.828125 -0.84375q-0.5 -0.359375 -1.34375 -0.59375l0 -0.015625q0.4375 -0.15625 0.78125 -0.390625q0.359375 -0.234375 0.640625 -0.515625q0.515625 -0.515625 0.78125 -1.203125q0.265625 -0.6875 0.28125 -1.46875q0 -1.1875 -0.4375 -2.0625q-0.4375 -0.890625 -1.25 -1.453125q-0.8125 -0.578125 -1.953125 -0.859375q-1.140625 -0.28125 -2.53125 -0.28125l-5.734375 0l0 17.0625zm3.296875 -7.53125l3.078125 0q0.6875 0.015625 1.1875 0.203125q0.515625 0.171875 0.828125 0.5q0.3125 0.3125 0.453125 0.765625q0.15625 0.453125 0.15625 1.03125q0 0.546875 -0.203125 1.0q-0.1875 0.4375 -0.5625 0.765625q-0.34375 0.28125 -0.859375 0.453125q-0.5 0.15625 -1.140625 0.15625l-2.9375 0l0 -4.875zm0 -2.375l0 -4.46875l2.4375 0q0.796875 0 1.390625 0.171875q0.59375 0.15625 0.953125 0.53125q0.265625 0.25 0.390625 0.640625q0.140625 0.390625 0.140625 0.90625q0 0.484375 -0.15625 0.875q-0.15625 0.390625 -0.453125 0.65625q-0.34375 0.34375 -0.921875 0.515625q-0.578125 0.15625 -1.328125 0.171875l-2.453125 0zm19.167969 9.90625l3.296875 0l0 -0.203125q-0.234375 -0.484375 -0.375 -1.140625q-0.125 -0.671875 -0.125 -1.6875l0 -5.4375q0 -1.109375 -0.40625 -1.9375q-0.40625 -0.84375 -1.140625 -1.390625q-0.71875 -0.5625 -1.71875 -0.84375q-0.984375 -0.28125 -2.140625 -0.28125q-1.265625 0 -2.265625 0.328125q-0.984375 0.328125 -1.671875 0.875q-0.6875 0.546875 -1.046875 1.28125q-0.359375 0.71875 -0.359375 1.53125l3.265625 0q0 -0.34375 0.09375 -0.625q0.109375 -0.28125 0.3125 -0.484375q0.234375 -0.21875 0.609375 -0.34375q0.375 -0.125 0.890625 -0.125q0.59375 0 1.03125 0.15625q0.4375 0.140625 0.734375 0.40625q0.28125 0.265625 0.421875 0.625q0.140625 0.359375 0.140625 0.796875l0 0.75l-1.828125 0q-1.40625 0 -2.484375 0.25q-1.078125 0.25 -1.828125 0.734375q-0.8125 0.53125 -1.234375 1.34375q-0.40625 0.8125 -0.40625 1.875q0 0.8125 0.328125 1.515625q0.328125 0.6875 0.921875 1.203125q0.578125 0.5 1.390625 0.78125q0.828125 0.28125 1.796875 0.28125q0.59375 0 1.109375 -0.109375q0.515625 -0.109375 0.953125 -0.3125q0.421875 -0.1875 0.765625 -0.4375q0.359375 -0.265625 0.625 -0.5625q0.0625 0.34375 0.140625 0.65625q0.078125 0.296875 0.203125 0.53125zm-3.109375 -2.28125q-0.453125 0 -0.796875 -0.109375q-0.34375 -0.125 -0.578125 -0.3125q-0.234375 -0.1875 -0.359375 -0.46875q-0.125 -0.296875 -0.125 -0.640625q0 -0.4375 0.15625 -0.796875q0.171875 -0.375 0.515625 -0.640625q0.328125 -0.265625 0.859375 -0.40625q0.546875 -0.140625 1.3125 -0.140625l1.671875 0l0 2.171875q-0.140625 0.25 -0.390625 0.5q-0.25 0.234375 -0.59375 0.421875q-0.328125 0.1875 -0.75 0.3125q-0.421875 0.109375 -0.921875 0.109375zm15.199219 -0.09375q-0.78125 0 -1.296875 -0.3125q-0.5 -0.3125 -0.796875 -0.84375q-0.3125 -0.515625 -0.4375 -1.203125q-0.109375 -0.6875 -0.109375 -1.421875l0 -0.34375q0 -0.734375 0.125 -1.40625q0.125 -0.6875 0.4375 -1.21875q0.28125 -0.515625 0.78125 -0.828125q0.515625 -0.328125 1.28125 -0.328125q0.53125 0 0.96875 0.1875q0.453125 0.171875 0.765625 0.484375q0.328125 0.296875 0.484375 0.71875q0.171875 0.421875 0.140625 0.890625l3.078125 0q0.015625 -1.125 -0.390625 -2.03125q-0.390625 -0.90625 -1.109375 -1.546875q-0.71875 -0.640625 -1.71875 -0.984375q-1.0 -0.359375 -2.171875 -0.359375q-1.453125 0 -2.5625 0.515625q-1.109375 0.5 -1.859375 1.359375q-0.75 0.875 -1.125 2.046875q-0.375 1.15625 -0.375 2.5l0 0.34375q0 1.34375 0.375 2.515625q0.390625 1.15625 1.140625 2.015625q0.734375 0.875 1.84375 1.375q1.109375 0.5 2.59375 0.5q1.09375 0 2.0625 -0.34375q0.984375 -0.359375 1.71875 -0.96875q0.734375 -0.609375 1.15625 -1.453125q0.4375 -0.84375 0.421875 -1.828125l-3.078125 0q0.03125 0.453125 -0.15625 0.8125q-0.1875 0.359375 -0.515625 0.625q-0.328125 0.25 -0.765625 0.390625q-0.421875 0.140625 -0.90625 0.140625zm13.558594 -2.859375l3.59375 5.234375l4.0 0l-5.453125 -7.390625l4.78125 -5.296875l-3.90625 0l-3.5 3.84375l-0.984375 1.125l0 -10.28125l-3.265625 0l0 18.0l3.265625 0l0 -3.875l1.46875 -1.359375zm15.792969 5.46875q1.828125 0 3.171875 -0.71875q1.359375 -0.71875 1.984375 -1.59375l-1.640625 -1.75q-0.5625 0.71875 -1.46875 1.09375q-0.890625 0.359375 -1.859375 0.359375q-0.671875 0 -1.25 -0.203125q-0.578125 -0.21875 -1.015625 -0.609375q-0.4375 -0.375 -0.703125 -0.828125q-0.25 -0.46875 -0.40625 -1.234375l0 -0.03125l8.59375 0l0 -1.390625q0 -1.390625 -0.390625 -2.546875q-0.375 -1.15625 -1.125 -1.96875q-0.75 -0.828125 -1.828125 -1.28125q-1.0625 -0.453125 -2.4375 -0.453125q-1.3125 0 -2.4375 0.484375q-1.125 0.484375 -1.953125 1.34375q-0.8125 0.875 -1.28125 2.078125q-0.453125 1.203125 -0.453125 2.65625l0 0.46875q0 1.265625 0.453125 2.390625q0.46875 1.125 1.328125 1.9375q0.859375 0.828125 2.046875 1.3125q1.203125 0.484375 2.671875 0.484375zm-0.390625 -10.515625q0.625 0 1.09375 0.203125q0.46875 0.1875 0.796875 0.515625q0.328125 0.34375 0.515625 0.796875q0.1875 0.453125 0.1875 0.96875l0 0.265625l-5.34375 0q0.125 -0.625 0.359375 -1.125q0.234375 -0.515625 0.578125 -0.875q0.34375 -0.359375 0.796875 -0.546875q0.46875 -0.203125 1.015625 -0.203125zm8.636719 10.28125l3.265625 0l0 -9.015625q0.171875 -0.25 0.359375 -0.453125q0.203125 -0.21875 0.453125 -0.375q0.296875 -0.21875 0.6875 -0.3125q0.40625 -0.109375 0.875 -0.109375q0.5625 0 1.0 0.109375q0.453125 0.109375 0.765625 0.390625q0.3125 0.28125 0.484375 0.765625q0.171875 0.484375 0.171875 1.234375l0 7.765625l3.25 0l0 -7.8125q0 -1.375 -0.328125 -2.34375q-0.3125 -0.96875 -0.890625 -1.59375q-0.578125 -0.609375 -1.375 -0.890625q-0.796875 -0.28125 -1.765625 -0.28125q-0.75 0 -1.421875 0.21875q-0.65625 0.203125 -1.21875 0.609375q-0.328125 0.234375 -0.625 0.53125q-0.296875 0.28125 -0.53125 0.640625l-0.203125 -1.765625l-2.953125 0l0 12.6875zm14.058594 -6.4375l0 0.25q0 1.375 0.34375 2.5625q0.34375 1.171875 0.984375 2.03125q0.625 0.859375 1.546875 1.34375q0.921875 0.484375 2.078125 0.484375q1.078125 0 1.875 -0.40625q0.8125 -0.421875 1.40625 -1.15625l0.171875 1.328125l2.9375 0l0 -18.0l-3.265625 0l0 6.453125q-0.59375 -0.65625 -1.34375 -1.015625q-0.75 -0.359375 -1.75 -0.359375q-1.1875 0 -2.109375 0.46875q-0.921875 0.46875 -1.5625 1.328125q-0.640625 0.859375 -0.984375 2.0625q-0.328125 1.1875 -0.328125 2.625zm3.265625 0.25l0 -0.25q0 -0.796875 0.140625 -1.484375q0.140625 -0.703125 0.4375 -1.234375q0.3125 -0.515625 0.796875 -0.8125q0.484375 -0.296875 1.171875 -0.296875q0.828125 0 1.375 0.359375q0.5625 0.359375 0.890625 1.0l0 5.125q-0.328125 0.640625 -0.890625 1.0q-0.546875 0.359375 -1.390625 0.359375q-0.703125 0 -1.1875 -0.28125q-0.46875 -0.296875 -0.78125 -0.8125q-0.296875 -0.5 -0.4375 -1.1875q-0.125 -0.6875 -0.125 -1.484375z" fill-rule="nonzero"/><path fill="#000000" fill-opacity="0.0" d="m653.67847 239.56168l0 58.173218" fill-rule="evenodd"/><path stroke="#666666" stroke-width="2.0" stroke-linejoin="round" stroke-linecap="butt" d="m653.67847 239.56168l0 46.173218" fill-rule="evenodd"/><path fill="#666666" stroke="#666666" stroke-width="2.0" stroke-linecap="butt" d="m650.375 285.7349l3.3034668 9.076202l3.3034668 -9.076202z" fill-rule="evenodd"/><path fill="#000000" fill-opacity="0.0" d="m571.1601 201.94751l165.03937 0l0 29.606293l-165.03937 0z" fill-rule="evenodd"/><path fill="#666666" d="m615.93884 219.88814l0 0.15625q0 0.921875 0.140625 1.734375q0.140625 0.796875 0.375 1.484375q0.234375 0.6875 0.5625 1.25q0.328125 0.5625 0.6875 1.0q0.34375 0.4375 0.71875 0.734375q0.390625 0.3125 0.75 0.46875l0.359375 -0.96875q-0.265625 -0.203125 -0.53125 -0.5q-0.25 -0.28125 -0.484375 -0.6875q-0.21875 -0.359375 -0.421875 -0.84375q-0.1875 -0.484375 -0.328125 -1.0625q-0.109375 -0.40625 -0.203125 -1.09375q-0.078125 -0.703125 -0.078125 -1.515625l0 -0.15625q0 -0.828125 0.09375 -1.53125q0.09375 -0.703125 0.234375 -1.28125q0.171875 -0.609375 0.390625 -1.109375q0.234375 -0.515625 0.5 -0.875q0.203125 -0.296875 0.40625 -0.515625q0.203125 -0.21875 0.421875 -0.375l-0.359375 -0.984375q-0.359375 0.15625 -0.75 0.46875q-0.375 0.296875 -0.71875 0.734375q-0.359375 0.4375 -0.6875 1.0q-0.328125 0.5625 -0.5625 1.25q-0.234375 0.6875 -0.375 1.5q-0.140625 0.8125 -0.140625 1.71875zm6.420105 0.28125l0 0.125q0 0.78125 0.21875 1.4375q0.21875 0.65625 0.65625 1.125q0.421875 0.484375 1.03125 0.765625q0.625 0.265625 1.421875 0.265625q0.796875 0 1.40625 -0.265625q0.625 -0.28125 1.046875 -0.765625q0.421875 -0.46875 0.640625 -1.125q0.21875 -0.65625 0.21875 -1.4375l0 -0.125q0 -0.78125 -0.21875 -1.421875q-0.21875 -0.65625 -0.640625 -1.140625q-0.4375 -0.484375 -1.0625 -0.75q-0.609375 -0.28125 -1.40625 -0.28125q-0.78125 0 -1.40625 0.28125q-0.609375 0.265625 -1.03125 0.75q-0.4375 0.484375 -0.65625 1.140625q-0.21875 0.640625 -0.21875 1.421875zm1.8125 0.125l0 -0.125q0 -0.4375 0.078125 -0.8125q0.09375 -0.390625 0.265625 -0.6875q0.1875 -0.296875 0.46875 -0.453125q0.28125 -0.171875 0.6875 -0.171875q0.421875 0 0.703125 0.171875q0.28125 0.15625 0.46875 0.453125q0.171875 0.296875 0.25 0.6875q0.09375 0.375 0.09375 0.8125l0 0.125q0 0.453125 -0.09375 0.84375q-0.078125 0.375 -0.25 0.65625q-0.1875 0.296875 -0.46875 0.46875q-0.28125 0.171875 -0.6875 0.171875q-0.40625 0 -0.703125 -0.171875q-0.28125 -0.171875 -0.46875 -0.46875q-0.171875 -0.28125 -0.265625 -0.65625q-0.078125 -0.390625 -0.078125 -0.84375zm6.451294 6.15625l1.8125 0l0 -3.3125q0.125 0.140625 0.265625 0.25q0.140625 0.109375 0.28125 0.203125q0.25 0.140625 0.546875 0.203125q0.296875 0.078125 0.65625 0.078125q0.65625 0 1.171875 -0.265625q0.515625 -0.28125 0.875 -0.75q0.34375 -0.484375 0.515625 -1.140625q0.1875 -0.65625 0.1875 -1.421875l0 -0.140625q0 -0.796875 -0.1875 -1.453125q-0.171875 -0.671875 -0.53125 -1.140625q-0.34375 -0.46875 -0.859375 -0.71875q-0.515625 -0.265625 -1.1875 -0.265625q-0.328125 0 -0.609375 0.078125q-0.28125 0.0625 -0.515625 0.1875q-0.203125 0.09375 -0.375 0.234375q-0.15625 0.140625 -0.296875 0.3125l-0.078125 -0.6875l-1.671875 0l0 9.75zm4.5 -6.296875l0 0.140625q0 0.4375 -0.078125 0.828125q-0.078125 0.375 -0.25 0.671875q-0.171875 0.296875 -0.4375 0.46875q-0.265625 0.15625 -0.65625 0.15625q-0.234375 0 -0.4375 -0.046875q-0.1875 -0.046875 -0.34375 -0.140625q-0.15625 -0.09375 -0.28125 -0.21875q-0.109375 -0.140625 -0.203125 -0.3125l0 -2.9375q0.09375 -0.1875 0.21875 -0.328125q0.125 -0.140625 0.296875 -0.21875q0.15625 -0.078125 0.328125 -0.125q0.1875 -0.046875 0.40625 -0.046875q0.390625 0 0.65625 0.171875q0.265625 0.15625 0.453125 0.4375q0.15625 0.28125 0.234375 0.671875q0.09375 0.390625 0.09375 0.828125zm6.795044 -5.171875l-1.8125 0l0 1.71875l-1.609375 0l0 1.34375l1.609375 0l0 3.203125q0 0.6875 0.1875 1.1875q0.1875 0.5 0.515625 0.8125q0.34375 0.328125 0.8125 0.484375q0.46875 0.15625 1.046875 0.15625q0.296875 0 0.609375 -0.03125q0.3125 -0.03125 0.59375 -0.078125q0.28125 -0.0625 0.53125 -0.140625q0.265625 -0.078125 0.453125 -0.1875l-0.171875 -1.25q-0.125 0.03125 -0.296875 0.078125q-0.171875 0.03125 -0.375 0.046875q-0.203125 0.03125 -0.421875 0.0625q-0.21875 0.015625 -0.421875 0.015625q-0.28125 0 -0.515625 -0.0625q-0.234375 -0.078125 -0.390625 -0.234375q-0.171875 -0.140625 -0.265625 -0.390625q-0.078125 -0.265625 -0.078125 -0.65625l0 -3.015625l2.625 0l0 -1.34375l-2.625 0l0 -1.71875zm5.170044 1.71875l0 1.484375l2.0 0l0 4.09375l-2.0 0l0 1.46875l5.734375 0l0 -1.46875l-1.90625 0l0 -5.578125l-3.828125 0zm1.875 -1.796875q0 0.203125 0.0625 0.390625q0.078125 0.171875 0.21875 0.296875q0.140625 0.125 0.328125 0.203125q0.1875 0.078125 0.421875 0.078125q0.484375 0 0.765625 -0.265625q0.28125 -0.28125 0.28125 -0.703125q0 -0.421875 -0.28125 -0.6875q-0.28125 -0.28125 -0.765625 -0.28125q-0.234375 0 -0.421875 0.078125q-0.1875 0.0625 -0.328125 0.1875q-0.140625 0.140625 -0.21875 0.328125q-0.0625 0.171875 -0.0625 0.375zm5.388855 5.265625l0 0.125q0 0.78125 0.21875 1.4375q0.21875 0.65625 0.65625 1.125q0.421875 0.484375 1.03125 0.765625q0.625 0.265625 1.421875 0.265625q0.796875 0 1.40625 -0.265625q0.625 -0.28125 1.046875 -0.765625q0.421875 -0.46875 0.640625 -1.125q0.21875 -0.65625 0.21875 -1.4375l0 -0.125q0 -0.78125 -0.21875 -1.421875q-0.21875 -0.65625 -0.640625 -1.140625q-0.4375 -0.484375 -1.0625 -0.75q-0.609375 -0.28125 -1.40625 -0.28125q-0.78125 0 -1.40625 0.28125q-0.609375 0.265625 -1.03125 0.75q-0.4375 0.484375 -0.65625 1.140625q-0.21875 0.640625 -0.21875 1.421875zm1.8125 0.125l0 -0.125q0 -0.4375 0.078125 -0.8125q0.09375 -0.390625 0.265625 -0.6875q0.1875 -0.296875 0.46875 -0.453125q0.28125 -0.171875 0.6875 -0.171875q0.421875 0 0.703125 0.171875q0.28125 0.15625 0.46875 0.453125q0.171875 0.296875 0.25 0.6875q0.09375 0.375 0.09375 0.8125l0 0.125q0 0.453125 -0.09375 0.84375q-0.078125 0.375 -0.25 0.65625q-0.1875 0.296875 -0.46875 0.46875q-0.28125 0.171875 -0.6875 0.171875q-0.40625 0 -0.703125 -0.171875q-0.28125 -0.171875 -0.46875 -0.46875q-0.171875 -0.28125 -0.265625 -0.65625q-0.078125 -0.390625 -0.078125 -0.84375zm6.435669 3.453125l1.8125 0l0 -5.0q0.09375 -0.140625 0.203125 -0.25q0.109375 -0.125 0.25 -0.21875q0.15625 -0.109375 0.375 -0.171875q0.21875 -0.0625 0.484375 -0.0625q0.3125 0 0.5625 0.0625q0.25 0.0625 0.421875 0.21875q0.171875 0.15625 0.265625 0.4375q0.09375 0.265625 0.09375 0.671875l0 4.3125l1.8125 0l0 -4.328125q0 -0.78125 -0.1875 -1.3125q-0.171875 -0.53125 -0.484375 -0.875q-0.328125 -0.34375 -0.78125 -0.5q-0.4375 -0.15625 -0.96875 -0.15625q-0.421875 0 -0.796875 0.125q-0.359375 0.109375 -0.671875 0.328125q-0.1875 0.125 -0.34375 0.296875q-0.15625 0.15625 -0.296875 0.359375l-0.109375 -0.984375l-1.640625 0l0 7.046875zm12.388794 0l1.84375 0l0 -0.109375q-0.140625 -0.265625 -0.21875 -0.640625q-0.0625 -0.375 -0.0625 -0.9375l0 -3.015625q0 -0.609375 -0.234375 -1.078125q-0.21875 -0.46875 -0.625 -0.765625q-0.40625 -0.3125 -0.953125 -0.46875q-0.546875 -0.15625 -1.1875 -0.15625q-0.71875 0 -1.265625 0.1875q-0.546875 0.171875 -0.921875 0.46875q-0.390625 0.3125 -0.59375 0.71875q-0.1875 0.40625 -0.1875 0.84375l1.8125 0q0 -0.1875 0.046875 -0.34375q0.0625 -0.15625 0.171875 -0.265625q0.140625 -0.125 0.34375 -0.1875q0.203125 -0.0625 0.5 -0.0625q0.3125 0 0.5625 0.078125q0.25 0.078125 0.40625 0.234375q0.15625 0.140625 0.234375 0.34375q0.078125 0.1875 0.078125 0.4375l0 0.421875l-1.015625 0q-0.765625 0 -1.375 0.140625q-0.609375 0.140625 -1.015625 0.40625q-0.453125 0.28125 -0.6875 0.734375q-0.21875 0.453125 -0.21875 1.046875q0 0.453125 0.171875 0.84375q0.1875 0.390625 0.515625 0.65625q0.328125 0.28125 0.78125 0.4375q0.453125 0.15625 0.984375 0.15625q0.34375 0 0.625 -0.0625q0.28125 -0.0625 0.53125 -0.171875q0.234375 -0.09375 0.421875 -0.234375q0.203125 -0.15625 0.34375 -0.3125q0.03125 0.1875 0.078125 0.359375q0.046875 0.171875 0.109375 0.296875zm-1.71875 -1.265625q-0.25 0 -0.453125 -0.0625q-0.1875 -0.0625 -0.3125 -0.171875q-0.140625 -0.109375 -0.203125 -0.265625q-0.0625 -0.15625 -0.0625 -0.34375q0 -0.25 0.078125 -0.453125q0.09375 -0.203125 0.28125 -0.359375q0.203125 -0.140625 0.5 -0.21875q0.296875 -0.078125 0.71875 -0.078125l0.921875 0l0 1.203125q-0.078125 0.140625 -0.21875 0.28125q-0.125 0.125 -0.328125 0.234375q-0.1875 0.09375 -0.421875 0.171875q-0.234375 0.0625 -0.5 0.0625zm5.701294 -8.734375l0 1.484375l2.109375 0l0 7.046875l-2.109375 0l0 1.46875l5.953125 0l0 -1.46875l-2.015625 0l0 -8.53125l-3.9375 0zm12.43573 6.296875l0 -0.15625q0 -0.890625 -0.140625 -1.6875q-0.140625 -0.796875 -0.390625 -1.484375q-0.25 -0.6875 -0.578125 -1.25q-0.328125 -0.578125 -0.703125 -1.03125q-0.375 -0.4375 -0.765625 -0.75q-0.390625 -0.3125 -0.75 -0.46875l-0.34375 0.96875q0.1875 0.140625 0.390625 0.359375q0.203125 0.203125 0.390625 0.46875q0.28125 0.40625 0.53125 0.96875q0.25 0.546875 0.421875 1.25q0.140625 0.546875 0.21875 1.21875q0.078125 0.65625 0.078125 1.4375l0 0.15625q0 0.796875 -0.078125 1.46875q-0.078125 0.671875 -0.21875 1.234375q-0.171875 0.609375 -0.390625 1.109375q-0.203125 0.5 -0.453125 0.890625q-0.21875 0.328125 -0.453125 0.578125q-0.21875 0.25 -0.4375 0.421875l0.34375 0.96875q0.359375 -0.15625 0.75 -0.46875q0.390625 -0.3125 0.765625 -0.765625q0.375 -0.4375 0.703125 -1.015625q0.328125 -0.5625 0.578125 -1.25q0.25 -0.6875 0.390625 -1.484375q0.140625 -0.796875 0.140625 -1.6875z" fill-rule="nonzero"/><path fill="#000000" fill-opacity="0.0" d="m653.6798 245.84776l77.543274 0l0 29.606308l-77.543274 0z" fill-rule="evenodd"/><path fill="#666666" d="m666.5047 260.6009l-1.5625 0l0 7.046875l1.65625 0l0 -5.265625q0.03125 -0.09375 0.0625 -0.15625q0.046875 -0.078125 0.09375 -0.125q0.078125 -0.078125 0.15625 -0.109375q0.09375 -0.046875 0.21875 -0.046875q0.09375 0 0.1875 0.03125q0.09375 0.03125 0.171875 0.09375q0.0625 0.078125 0.09375 0.21875q0.046875 0.125 0.046875 0.328125l0 5.03125l1.59375 0l0 -5.1875q0 -0.078125 0 -0.125q0 -0.046875 0 -0.0625q0.03125 -0.078125 0.078125 -0.125q0.046875 -0.0625 0.109375 -0.109375q0.0625 -0.046875 0.140625 -0.0625q0.09375 -0.03125 0.1875 -0.03125q0.09375 0 0.1875 0.03125q0.109375 0.03125 0.171875 0.09375q0.078125 0.078125 0.109375 0.21875q0.046875 0.125 0.046875 0.328125l0 5.03125l1.640625 0l0 -5.03125q0 -0.578125 -0.109375 -0.984375q-0.109375 -0.40625 -0.3125 -0.671875q-0.203125 -0.25 -0.484375 -0.359375q-0.28125 -0.125 -0.59375 -0.125q-0.25 0 -0.46875 0.0625q-0.21875 0.0625 -0.390625 0.1875q-0.125 0.09375 -0.25 0.21875q-0.109375 0.125 -0.203125 0.28125q-0.0625 -0.171875 -0.140625 -0.296875q-0.078125 -0.125 -0.1875 -0.21875q-0.140625 -0.109375 -0.34375 -0.171875q-0.1875 -0.0625 -0.4375 -0.0625q-0.515625 0 -0.875 0.265625q-0.34375 0.265625 -0.546875 0.71875l-0.046875 -0.859375zm10.279419 7.171875q1.03125 0 1.78125 -0.390625q0.75 -0.390625 1.09375 -0.890625l-0.90625 -0.96875q-0.3125 0.40625 -0.8125 0.609375q-0.5 0.1875 -1.046875 0.1875q-0.375 0 -0.703125 -0.109375q-0.3125 -0.125 -0.546875 -0.328125q-0.25 -0.21875 -0.390625 -0.46875q-0.140625 -0.265625 -0.234375 -0.6875l0 -0.015625l4.78125 0l0 -0.765625q0 -0.78125 -0.21875 -1.421875q-0.21875 -0.640625 -0.625 -1.09375q-0.421875 -0.453125 -1.015625 -0.703125q-0.59375 -0.25 -1.359375 -0.25q-0.734375 0 -1.359375 0.265625q-0.625 0.265625 -1.078125 0.75q-0.453125 0.484375 -0.703125 1.15625q-0.25 0.65625 -0.25 1.46875l0 0.25q0 0.71875 0.25 1.34375q0.265625 0.609375 0.734375 1.078125q0.46875 0.453125 1.125 0.71875q0.671875 0.265625 1.484375 0.265625zm-0.203125 -5.828125q0.34375 0 0.59375 0.109375q0.265625 0.09375 0.453125 0.28125q0.1875 0.1875 0.28125 0.453125q0.109375 0.25 0.109375 0.53125l0 0.140625l-2.96875 0q0.0625 -0.34375 0.1875 -0.625q0.140625 -0.28125 0.34375 -0.484375q0.1875 -0.203125 0.4375 -0.296875q0.25 -0.109375 0.5625 -0.109375zm8.107544 -3.0625l-1.8125 0l0 1.71875l-1.609375 0l0 1.34375l1.609375 0l0 3.203125q0 0.6875 0.1875 1.1875q0.1875 0.5 0.515625 0.8125q0.34375 0.328125 0.8125 0.484375q0.46875 0.15625 1.046875 0.15625q0.296875 0 0.609375 -0.03125q0.3125 -0.03125 0.59375 -0.078125q0.28125 -0.0625 0.53125 -0.140625q0.265625 -0.078125 0.453125 -0.1875l-0.171875 -1.25q-0.125 0.03125 -0.296875 0.078125q-0.171875 0.03125 -0.375 0.046875q-0.203125 0.03125 -0.421875 0.0625q-0.21875 0.015625 -0.421875 0.015625q-0.28125 0 -0.515625 -0.0625q-0.234375 -0.078125 -0.390625 -0.234375q-0.171875 -0.140625 -0.265625 -0.390625q-0.078125 -0.265625 -0.078125 -0.65625l0 -3.015625l2.625 0l0 -1.34375l-2.625 0l0 -1.71875zm9.732544 1.59375q-0.703125 0 -1.3125 0.34375q-0.59375 0.34375 -1.015625 0.9375l-0.015625 -0.15625l-0.078125 -1.0l-1.671875 0l0 7.046875l1.796875 0l0 -4.234375q0.125 -0.296875 0.3125 -0.515625q0.1875 -0.21875 0.453125 -0.359375q0.234375 -0.125 0.515625 -0.1875q0.28125 -0.0625 0.625 -0.0625q0.34375 0 0.71875 0.046875q0.375 0.03125 0.734375 0.125l0.265625 -1.8125q-0.21875 -0.0625 -0.5625 -0.109375q-0.34375 -0.0625 -0.765625 -0.0625zm3.43573 0.125l0 1.484375l2.0 0l0 4.09375l-2.0 0l0 1.46875l5.734375 0l0 -1.46875l-1.90625 0l0 -5.578125l-3.828125 0zm1.875 -1.796875q0 0.203125 0.0625 0.390625q0.078125 0.171875 0.21875 0.296875q0.140625 0.125 0.328125 0.203125q0.1875 0.078125 0.421875 0.078125q0.484375 0 0.765625 -0.265625q0.28125 -0.28125 0.28125 -0.703125q0 -0.421875 -0.28125 -0.6875q-0.28125 -0.28125 -0.765625 -0.28125q-0.234375 0 -0.421875 0.078125q-0.1875 0.0625 -0.328125 0.1875q-0.140625 0.140625 -0.21875 0.328125q-0.0625 0.171875 -0.0625 0.375zm8.748169 7.53125q-0.4375 0 -0.71875 -0.171875q-0.28125 -0.1875 -0.4375 -0.46875q-0.171875 -0.296875 -0.234375 -0.671875q-0.0625 -0.375 -0.0625 -0.796875l0 -0.1875q0 -0.40625 0.0625 -0.78125q0.0625 -0.375 0.234375 -0.671875q0.171875 -0.296875 0.4375 -0.46875q0.28125 -0.171875 0.71875 -0.171875q0.296875 0 0.53125 0.109375q0.25 0.09375 0.421875 0.25q0.1875 0.171875 0.265625 0.40625q0.09375 0.234375 0.09375 0.5l1.703125 0q0 -0.625 -0.21875 -1.125q-0.21875 -0.515625 -0.609375 -0.875q-0.40625 -0.34375 -0.96875 -0.53125q-0.546875 -0.203125 -1.203125 -0.203125q-0.8125 0 -1.421875 0.28125q-0.609375 0.28125 -1.03125 0.765625q-0.421875 0.46875 -0.625 1.125q-0.203125 0.640625 -0.203125 1.390625l0 0.1875q0 0.75 0.203125 1.40625q0.21875 0.640625 0.625 1.125q0.421875 0.46875 1.03125 0.75q0.625 0.28125 1.4375 0.28125q0.609375 0 1.15625 -0.1875q0.546875 -0.203125 0.953125 -0.53125q0.40625 -0.34375 0.640625 -0.8125q0.234375 -0.46875 0.234375 -1.015625l-1.703125 0q0 0.25 -0.109375 0.453125q-0.09375 0.203125 -0.265625 0.34375q-0.1875 0.140625 -0.4375 0.21875q-0.234375 0.078125 -0.5 0.078125zm9.420044 -0.625q0 0.171875 -0.078125 0.3125q-0.078125 0.125 -0.234375 0.234375q-0.171875 0.109375 -0.4375 0.171875q-0.265625 0.046875 -0.609375 0.046875q-0.296875 0 -0.578125 -0.046875q-0.28125 -0.0625 -0.484375 -0.1875q-0.21875 -0.125 -0.359375 -0.328125q-0.140625 -0.21875 -0.15625 -0.5l-1.71875 0q0 0.4375 0.203125 0.859375q0.21875 0.421875 0.625 0.75q0.40625 0.34375 1.015625 0.5625q0.609375 0.203125 1.40625 0.203125q0.71875 0 1.296875 -0.15625q0.59375 -0.171875 1.015625 -0.453125q0.40625 -0.28125 0.625 -0.671875q0.234375 -0.40625 0.234375 -0.875q0 -0.5 -0.234375 -0.859375q-0.21875 -0.375 -0.609375 -0.640625q-0.40625 -0.25 -0.953125 -0.40625q-0.546875 -0.171875 -1.171875 -0.28125q-0.453125 -0.0625 -0.734375 -0.140625q-0.28125 -0.09375 -0.453125 -0.203125q-0.171875 -0.109375 -0.234375 -0.234375q-0.0625 -0.140625 -0.0625 -0.296875q0 -0.15625 0.078125 -0.296875q0.078125 -0.140625 0.21875 -0.234375q0.15625 -0.125 0.390625 -0.1875q0.25 -0.0625 0.59375 -0.0625q0.390625 0 0.65625 0.09375q0.28125 0.09375 0.4375 0.265625q0.125 0.125 0.171875 0.28125q0.0625 0.140625 0.0625 0.3125l1.8125 0q0 -0.484375 -0.21875 -0.890625q-0.203125 -0.421875 -0.609375 -0.734375q-0.40625 -0.296875 -1.0 -0.46875q-0.578125 -0.171875 -1.3125 -0.171875q-0.703125 0 -1.265625 0.1875q-0.5625 0.171875 -0.953125 0.46875q-0.390625 0.296875 -0.609375 0.703125q-0.203125 0.390625 -0.203125 0.828125q0 0.4375 0.203125 0.78125q0.21875 0.34375 0.578125 0.609375q0.359375 0.265625 0.875 0.453125q0.515625 0.1875 1.125 0.3125q0.484375 0.09375 0.796875 0.1875q0.328125 0.078125 0.53125 0.1875q0.1875 0.109375 0.25 0.234375q0.078125 0.125 0.078125 0.28125z" fill-rule="nonzero"/><path fill="#000000" fill-opacity="0.0" d="m409.05118 240.4042l124.31497 90.17322" fill-rule="evenodd"/><path stroke="#666666" stroke-width="2.0" stroke-linejoin="round" stroke-linecap="butt" d="m409.05118 240.4042l114.60129 83.12732" fill-rule="evenodd"/><path fill="#666666" stroke="#666666" stroke-width="2.0" stroke-linecap="butt" d="m521.7128 326.20557l9.28656 2.6551208l-5.4072266 -8.003235z" fill-rule="evenodd"/><path fill="#000000" fill-opacity="0.0" d="m402.57742 278.68765l77.543304 0l0 29.606323l-77.543304 0z" fill-rule="evenodd"/><path fill="#666666" d="m421.68265 300.61267q1.03125 0 1.78125 -0.390625q0.75 -0.390625 1.09375 -0.890625l-0.90625 -0.96875q-0.3125 0.40625 -0.8125 0.609375q-0.5 0.1875 -1.046875 0.1875q-0.375 0 -0.703125 -0.109375q-0.3125 -0.125 -0.546875 -0.328125q-0.25 -0.21875 -0.390625 -0.46875q-0.140625 -0.265625 -0.234375 -0.6875l0 -0.015625l4.78125 0l0 -0.765625q0 -0.78125 -0.21875 -1.421875q-0.21875 -0.640625 -0.625 -1.09375q-0.421875 -0.453125 -1.015625 -0.703125q-0.59375 -0.25 -1.359375 -0.25q-0.734375 0 -1.359375 0.265625q-0.625 0.265625 -1.078125 0.75q-0.453125 0.484375 -0.703125 1.15625q-0.25 0.65625 -0.25 1.46875l0 0.25q0 0.71875 0.25 1.34375q0.265625 0.609375 0.734375 1.078125q0.46875 0.453125 1.125 0.71875q0.671875 0.265625 1.484375 0.265625zm-0.203125 -5.828125q0.34375 0 0.59375 0.109375q0.265625 0.09375 0.453125 0.28125q0.1875 0.1875 0.28125 0.453125q0.109375 0.25 0.109375 0.53125l0 0.140625l-2.96875 0q0.0625 -0.34375 0.1875 -0.625q0.140625 -0.28125 0.34375 -0.484375q0.1875 -0.203125 0.4375 -0.296875q0.25 -0.109375 0.5625 -0.109375zm7.0294495 5.703125l1.703125 0l2.671875 -7.046875l-1.890625 0l-1.546875 4.96875l-0.09375 0.5l-0.09375 -0.5l-1.546875 -4.96875l-1.890625 0l2.6875 7.046875zm9.170044 0.125q1.03125 0 1.78125 -0.390625q0.75 -0.390625 1.09375 -0.890625l-0.90625 -0.96875q-0.3125 0.40625 -0.8125 0.609375q-0.5 0.1875 -1.046875 0.1875q-0.375 0 -0.703125 -0.109375q-0.3125 -0.125 -0.546875 -0.328125q-0.25 -0.21875 -0.390625 -0.46875q-0.140625 -0.265625 -0.234375 -0.6875l0 -0.015625l4.78125 0l0 -0.765625q0 -0.78125 -0.21875 -1.421875q-0.21875 -0.640625 -0.625 -1.09375q-0.421875 -0.453125 -1.015625 -0.703125q-0.59375 -0.25 -1.359375 -0.25q-0.734375 0 -1.359375 0.265625q-0.625 0.265625 -1.078125 0.75q-0.453125 0.484375 -0.703125 1.15625q-0.25 0.65625 -0.25 1.46875l0 0.25q0 0.71875 0.25 1.34375q0.265625 0.609375 0.734375 1.078125q0.46875 0.453125 1.125 0.71875q0.671875 0.265625 1.484375 0.265625zm-0.203125 -5.828125q0.34375 0 0.59375 0.109375q0.265625 0.09375 0.453125 0.28125q0.1875 0.1875 0.28125 0.453125q0.109375 0.25 0.109375 0.53125l0 0.140625l-2.96875 0q0.0625 -0.34375 0.1875 -0.625q0.140625 -0.28125 0.34375 -0.484375q0.1875 -0.203125 0.4375 -0.296875q0.25 -0.109375 0.5625 -0.109375zm4.7950745 5.703125l1.8125 0l0 -5.0q0.09375 -0.140625 0.203125 -0.25q0.109375 -0.125 0.25 -0.21875q0.15625 -0.109375 0.375 -0.171875q0.21875 -0.0625 0.484375 -0.0625q0.3125 0 0.5625 0.0625q0.25 0.0625 0.421875 0.21875q0.171875 0.15625 0.265625 0.4375q0.09375 0.265625 0.09375 0.671875l0 4.3125l1.8125 0l0 -4.328125q0 -0.78125 -0.1875 -1.3125q-0.171875 -0.53125 -0.484375 -0.875q-0.328125 -0.34375 -0.78125 -0.5q-0.4375 -0.15625 -0.96875 -0.15625q-0.421875 0 -0.796875 0.125q-0.359375 0.109375 -0.671875 0.328125q-0.1875 0.125 -0.34375 0.296875q-0.15625 0.15625 -0.296875 0.359375l-0.109375 -0.984375l-1.640625 0l0 7.046875zm11.310669 -8.765625l-1.8125 0l0 1.71875l-1.609375 0l0 1.34375l1.609375 0l0 3.203125q0 0.6875 0.1875 1.1875q0.1875 0.5 0.515625 0.8125q0.34375 0.328125 0.8125 0.484375q0.46875 0.15625 1.046875 0.15625q0.296875 0 0.609375 -0.03125q0.3125 -0.03125 0.59375 -0.078125q0.28125 -0.0625 0.53125 -0.140625q0.265625 -0.078125 0.453125 -0.1875l-0.171875 -1.25q-0.125 0.03125 -0.296875 0.078125q-0.171875 0.03125 -0.375 0.046875q-0.203125 0.03125 -0.421875 0.0625q-0.21875 0.015625 -0.421875 0.015625q-0.28125 0 -0.515625 -0.0625q-0.234375 -0.078125 -0.390625 -0.234375q-0.171875 -0.140625 -0.265625 -0.390625q-0.078125 -0.265625 -0.078125 -0.65625l0 -3.015625l2.625 0l0 -1.34375l-2.625 0l0 -1.71875zm9.216949 6.828125q0 0.171875 -0.078125 0.3125q-0.078125 0.125 -0.234375 0.234375q-0.171875 0.109375 -0.4375 0.171875q-0.265625 0.046875 -0.609375 0.046875q-0.296875 0 -0.578125 -0.046875q-0.28125 -0.0625 -0.484375 -0.1875q-0.21875 -0.125 -0.359375 -0.328125q-0.140625 -0.21875 -0.15625 -0.5l-1.71875 0q0 0.4375 0.203125 0.859375q0.21875 0.421875 0.625 0.75q0.40625 0.34375 1.015625 0.5625q0.609375 0.203125 1.40625 0.203125q0.71875 0 1.296875 -0.15625q0.59375 -0.171875 1.015625 -0.453125q0.40625 -0.28125 0.625 -0.671875q0.234375 -0.40625 0.234375 -0.875q0 -0.5 -0.234375 -0.859375q-0.21875 -0.375 -0.609375 -0.640625q-0.40625 -0.25 -0.953125 -0.40625q-0.546875 -0.171875 -1.171875 -0.28125q-0.453125 -0.0625 -0.734375 -0.140625q-0.28125 -0.09375 -0.453125 -0.203125q-0.171875 -0.109375 -0.234375 -0.234375q-0.0625 -0.140625 -0.0625 -0.296875q0 -0.15625 0.078125 -0.296875q0.078125 -0.140625 0.21875 -0.234375q0.15625 -0.125 0.390625 -0.1875q0.25 -0.0625 0.59375 -0.0625q0.390625 0 0.65625 0.09375q0.28125 0.09375 0.4375 0.265625q0.125 0.125 0.171875 0.28125q0.0625 0.140625 0.0625 0.3125l1.8125 0q0 -0.484375 -0.21875 -0.890625q-0.203125 -0.421875 -0.609375 -0.734375q-0.40625 -0.296875 -1.0 -0.46875q-0.578125 -0.171875 -1.3125 -0.171875q-0.703125 0 -1.265625 0.1875q-0.5625 0.171875 -0.953125 0.46875q-0.390625 0.296875 -0.609375 0.703125q-0.203125 0.390625 -0.203125 0.828125q0 0.4375 0.203125 0.78125q0.21875 0.34375 0.578125 0.609375q0.359375 0.265625 0.875 0.453125q0.515625 0.1875 1.125 0.3125q0.484375 0.09375 0.796875 0.1875q0.328125 0.078125 0.53125 0.1875q0.1875 0.109375 0.25 0.234375q0.078125 0.125 0.078125 0.28125z" fill-rule="nonzero"/></g></svg>